<svg width="27" height="27" fill="none" xmlns="http://www.w3.org/2000/svg"><path d="M13.012 2.1c-3.456.021-3.625-.04-4.99.03-.82.015-2.219.726-2.987 1.016-.557.218-.571.578-.992 1.003-.42.426-.78.444-.992 1.004-.28.771-.975 2.179-.98 3-.054 1.364.01 1.531.03 4.988.02 3.457-.042 3.625.029 4.99.014.82.726 2.219 1.015 2.987.219.557.578.571 1.004.992.426.42.444.78 1.004.992.771.28 2.178.975 2.999.98 1.365.054 1.533-.01 4.99-.03 3.455-.02 3.624.042 4.988-.029.821-.014 2.22-.726 2.988-1.015.557-.219.571-.578.992-1.004.42-.426.78-.444.992-1.004.28-.77.975-2.178.98-2.999.055-1.365-.009-1.533-.029-4.989-.02-3.456.041-3.625-.03-4.989-.014-.82-.725-2.22-1.015-2.987-.218-.558-.578-.572-1.003-.992-.426-.421-.445-.78-1.004-.992-.772-.28-2.179-.976-3-.98-1.364-.055-1.533.008-4.989.029zM13 .106c3.516-.02 3.608-.084 4.99-.03 1.073.016 2.99.604 3.997.975.862.328 1.346.338 2.001.986.656.648.672 1.132 1.01 1.99.383 1.004.993 2.912 1.021 3.985.071 1.38.009 1.473.03 4.99.02 3.516.083 3.607.029 4.989-.015 1.073-.604 2.989-.974 3.997-.328.861-.338 1.345-.986 2.001-.649.656-1.132.672-1.99 1.01-1.004.382-2.912.993-3.986 1.02-1.38.072-1.474.01-4.989.03-3.515.02-3.608.084-4.99.03-1.073-.016-2.988-.604-3.997-.975-.861-.327-1.345-.338-2.001-.986-.656-.648-.672-1.132-1.01-1.99-.382-1.003-.993-2.911-1.02-3.985-.072-1.38-.01-1.473-.03-4.989C.084 9.637.02 9.545.075 8.163.091 7.09.68 5.175 1.05 4.168c.327-.862.338-1.346.986-2.002.648-.655 1.132-.672 1.99-1.01C5.029.774 6.937.163 8.01.136 9.39.063 9.483.126 13 .106z" fill="#fff"/><path d="M16.97 6.033c0-.102.067.072 0 0-.068-.072.094 0 0 0h-1.985c-.902-.048-2.306.346-2.977.995-.671.65-.943 2.017-.993 2.986v1.99H9.031c-.095 0 .067-.072 0 0-.067.073 0-.101 0 0v1.991c0 .102-.067-.072 0 0 .067.073-.095 0 0 0h1.984v5.972c0 .102-.067-.072 0 0s.898 0 .993 0h1.984c.095 0-.067.072 0 0s0 .102 0 0v-5.972h1.985c.08.002-.064.052 0 0 .064-.051-.02.083 0 0l.992-1.99c.015-.057.01.057 0 0-.01-.058.034.047 0 0-.033-.047.05.026 0 0-.049-.027.055 0 0 0h-2.977v-1.99c.018-.192-.132-.868 0-.996.133-.128.814-.001.993 0h1.984c.095 0-.067.072 0 0s0-.893 0-.995V6.033z" fill="#fff"/></svg>