<svg width="1360" height="943" fill="none" xmlns="http://www.w3.org/2000/svg"><path d="M2760.67 551.976c-72.27-44.346-219.92-74.439-372.02-93.995-121.78-15.554-250.37-25.442-382.02-29.999-25.21-.89-50.62-1.509-76-2-64.85-1.256-129.17-427.279-194.01-425.98-39 .772-78.27 2.307-117 4-134.57 5.838-206.95 16.441-331.02 33-35.81 4.794-71.65 10.324-106 15.998-57.39 9.458-111.87 20.157-164.01 31.999a2292.545 2292.545 0 00-34.001 8l-5 1c-159.053 32.192-387.43 20.245-488.373 9.711a336.604 336.604 0 00-6.649-.712c-15.917-1.562-31.921-2.665-48.002-4h-3c-22.871-1.913-46.471-4.025-70.003-5-53.474-2.032-108.316-.55-160.007 4h-1l-4 1h-4c-7.619.712-15.51 1.153-23.001 2l-4.001 1c-7.255.831-15.053 2.045-22 3h-4.001c-7.256 1.003-15.053 1.883-22.001 3-2.503.388-4.551 1.603-7 2-7.401 1.229-14.89 1.651-22 2.999-7.547 1.43-14.782 3.447-22.002 5-3.338.712-6.735 1.25-10 2-18.823 4.281-35.746 8.873-52.003 13.999-.897.267-2.156.733-3 1-4.326 1.392-8.892 2.552-13 4-1.524.534-2.504 1.45-4 2-4.88 1.769-9.466 3.15-14.001 5-.68.267-1.347.733-2 1-18.592 7.645-34.104 16.253-46.002 24.999-.381.267-.674.733-1 1-3.628 2.778-7.008 5.13-10 7.999-1.225 1.198-2.967 2.803-4 4-.355.356-.702.644-1 1-15.021 17.582-16.002 35.825-16.002 53.997v6c.436 29.395 1.417 484.986 16.001 513.975 0 .203-.109.806 0 1 4.882 9.76 11.632 19.451 20.001 28.999 8.76 10.018 20.46 19.463 34.001 28.999 33.55 23.463-162.179 73.205-108.004 92.995 65.303 23.812 52.707 49.51 304.013 40.998 49.433-1.674 110.613-.406 183.008 4 43.229 3.004 62.098 6.736 87.004 9.999 7.347.966 14.563 1.105 22.001 2 33.766 4.09 68.651 7.35 104.004 10 13.061.982 25.778 2.255 39.002 3 15.6.895 31.239 1.412 47.002 2 25.085.938 50.728 1.822 76.004 2 177.734 1.286 315.892-25.679 566.022-36.999 326.26-13.136 330.68 25.073 393.02 15 54.42-8.771-107.29-66.899-49-59.998 48.16 5.705 78.91 8.866 133 8 111.94-1.875 222.94-8.379 328.02-19.999 4.24-.461 7.78-1.522 12-2 274.03-31.19 509.64-93.401 632.03-172.992 3.22-2.103 6.93-3.863 10-5.999 73-50.69 99.57-109.573 19-158.993z" fill="#001032"/></svg>