<svg width="1360" height="1875" fill="none" xmlns="http://www.w3.org/2000/svg"><path d="M2094.17 1004.08c131.93-37.195 259.28-93.59 321.96-177.928 69.89-93.987 47.04-207.007-16.28-303.41a473.724 473.724 0 00-8.19-12.094c-106.16-151.366-310.52-269.157-548.21-328.476-3.66-.907-7.34-1.815-11.02-2.692-91.14-22.099-186.86-35.15-283.95-38.715-46.92-1.647-74.11 3.739-115.88 14.587-50.55 13.126 89.7-96.171 42.5-112.851-54.07-19.158-57.99 53.634-340.98 28.651C917.159 49.625 797.588-2.363 643.425.083a988.161 988.161 0 00-65.564 3.186A941.222 941.222 0 00537.054 7.5a852.433 852.433 0 00-34.198 4.924c-30.664 5.04-60.75 11.473-90.038 19.25a887.72 887.72 0 00-19.235 5.309c-21.603 6.206-38.366 12.015-75.862 17.728-62.794 8.38-115.606 11.755-158.484 8.57C-58.74 47.094-48.093 95.48-104.735 140.766c-46.99 37.637 123.012 131.855 93.912 176.478-11.746 18.136-21.456 36.804-29.053 55.857-7.26 18.158-13.019 36.557-17.253 55.117-.094.37-.26.754-.26 1.139-12.65 55.133-13.971 921.424-14.35 977.324v12.08c0 34.56 1.488 69.32 14.516 102.75.26.68.542 1.37.85 2.05.896 2.28 1.91 4.62 2.973 6.89a195.1 195.1 0 008.614 16.11c.284.51.59 1.04.92 1.54 10.321 16.64 23.69 32.4 39.816 46.94.567.5 1.133 1.03 1.723 1.53 3.933 3.52 8.016 6.96 12.249 10.33 1.298 1.05 2.62 2.06 3.941 3.08 3.564 2.75 7.246 5.44 10.998 8.09.732.51 1.464 1.03 2.243 1.54 14.1 9.75 29.389 18.74 45.715 26.88 2.832 1.43 5.696 2.82 8.59 4.17a440.636 440.636 0 0019.212 8.51 462.282 462.282 0 0018.881 7.36c2.124.75 4.272 1.55 6.443 2.29a445.454 445.454 0 0018.48 6.05l3.941 1.16a405.173 405.173 0 0018.48 5.1l3.942.98c6.498 1.61 13.051 3.1 19.659 4.45l3.942.8 2.879.55 1.558.3c44.835 8.65 91.944 11.13 138.326 7.26a670.483 670.483 0 0060.443-8.25l3.068-.55c13.948-2.54 27.778-5.37 41.585-8.34 32.523-6.94 64.833-14.64 97.733-20.79a689.48 689.48 0 0164.974-9.09l2.549-.24c6.891-.58 13.806-1.04 20.698-1.35h.079c4.906-.22 9.789-.43 14.672-.43 29.595-.42 58.79 2.05 86.049 8.82a242.262 242.262 0 0117.324 4.98c2.737.89 5.428 1.83 8.071 2.83.991.36 1.959.73 2.927 1.1 14.291 5.67 27.908 12.04 40.735 19.05 7.718 4.09 15.318 8.3 22.988 12.43l4.012 2.14a1227.13 1227.13 0 0029.643 15.28c45.227 22.52 92.918 42.85 142.693 60.84a1555.363 1555.363 0 0091.285 29.87c107.62 31.49 221.42 53.09 338.14 64.19 33.59 3.22 67.3 5.57 101.13 7.03 56.24 2.48 112.67-806.91 168.91-809.3 22.01-.94 43.96-2.25 65.83-3.94 114.19-8.67 225.85-28.09 331.48-57.67z" fill="#EBF1FE"/></svg>