<svg width="375" height="1150" fill="none" xmlns="http://www.w3.org/2000/svg"><path d="M1139.88 615.834c88.28-22.811 173.49-57.4 215.44-109.128 46.76-57.645 31.47-126.964-10.9-186.091a300.441 300.441 0 00-5.48-7.418c-71.03-92.838-207.78-165.083-366.823-201.465a904.006 904.006 0 00-7.375-1.651C903.756 96.527 839.71 88.523 774.746 86.336c-31.395-1.01-49.588 2.293-77.54 8.947-33.827 8.05 60.023-58.986 28.439-69.216-36.18-11.75-38.806 32.896-228.163 17.573C352.309 30.437 272.301-1.45 169.146.051a720.9 720.9 0 00-43.871 1.954A685.31 685.31 0 0097.97 4.6a619.128 619.128 0 00-22.883 3.02c-20.518 3.092-40.65 7.037-60.247 11.807a637.762 637.762 0 00-12.87 3.256c-14.456 3.806-25.672 7.369-50.762 10.873-42.017 5.14-77.356 7.21-106.046 5.257-145.855-9.93-138.73 19.748-176.632 47.523-31.442 23.084 82.311 80.871 62.839 108.24-7.859 11.123-14.356 22.573-19.44 34.258-4.857 11.137-8.711 22.422-11.544 33.806-.063.227-.174.462-.174.698-8.464 33.815-9.349 565.138-9.601 599.424v7.409c0 21.197.994 42.516 9.712 63.024.173.416.363.84.568 1.256a72.797 72.797 0 001.99 4.228 117.39 117.39 0 005.764 9.881c.19.311.395.632.616.944 6.906 10.201 15.851 19.866 26.642 28.784.379.312.758.633 1.152.944a182.459 182.459 0 008.197 6.333c.868.641 1.753 1.264 2.637 1.887a209.86 209.86 0 007.359 4.965c.49.311.979.632 1.5.943 9.436 5.98 19.666 11.49 30.59 16.49a296.633 296.633 0 0018.603 7.77c4.127 1.58 8.338 3.08 12.634 4.52 1.421.46 2.858.95 4.311 1.4a315.78 315.78 0 0012.366 3.71l2.637.72a301.95 301.95 0 0012.365 3.12l2.637.61c4.349.98 8.734 1.89 13.155 2.72l2.638.49 1.926.34 1.043.18c30 5.31 61.522 6.83 92.558 4.46a490.637 490.637 0 0040.444-5.06l2.053-.34c9.333-1.56 18.587-3.29 27.826-5.12 21.761-4.25 43.38-8.97 65.395-12.75a502.056 502.056 0 0143.476-5.57l1.706-.15c4.611-.35 9.238-.64 13.85-.83h.051c3.283-.13 6.551-.26 9.819-.26 19.803-.25 39.338 1.26 57.578 5.41 3.949.9 7.818 1.92 11.592 3.06 1.832.54 3.632 1.12 5.401 1.73.663.22 1.31.45 1.958.67 9.562 3.48 18.674 7.39 27.257 11.69 5.164 2.51 10.25 5.09 15.382 7.62l2.685 1.31a807.023 807.023 0 0019.835 9.37c30.262 13.82 62.174 26.29 95.479 37.32a1103.735 1103.735 0 0061.085 18.32c72.009 19.31 148.153 32.56 226.255 39.37 22.478 1.98 45.034 3.42 67.67 4.32 37.631 1.51 75.388-494.912 113.025-496.378 14.729-.573 29.41-1.378 44.044-2.416 76.409-5.315 151.124-17.23 221.804-35.372z" fill="#EBF1FE"/></svg>