<svg width="250" height="243" fill="none" xmlns="http://www.w3.org/2000/svg"><path fill-rule="evenodd" clip-rule="evenodd" d="M222.423 82.319c10.437 25.691 1.835 54.778-10.86 78.976-13.537 25.802-33.117 48.891-60.492 57.027-28.783 8.555-51.03-2.047-77.046-18.061-26.626-16.39-51.555-41.482-54.729-73.15-2.976-29.69 20.643-52.956 39.895-74.847 14.959-17.009 24.297-25.93 46.479-28.988 20.394-2.812 38.519 8.616 57.151 18.038 22.265 11.26 50.018 17.413 59.602 41.005z" fill="#F8FBFF"/><path d="M162.391 121.213c0 23.298-18.886 42.184-42.184 42.184-23.297 0-42.184-18.886-42.184-42.184 0-23.297 18.887-42.184 42.184-42.184 23.298 0 42.184 18.887 42.184 42.184zm-71.117 0c0 15.98 12.954 28.933 28.933 28.933 15.98 0 28.934-12.953 28.934-28.933 0-15.979-12.954-28.933-28.934-28.933-15.979 0-28.933 12.954-28.933 28.933z" fill="#1448B6"/><circle cx="119.672" cy="120.678" r="13.883" fill="#DCAF54"/><path d="M118.844 119.978L142.48 99.32l2.824 3.419c-4.757 4.111-15.371 11.8-23.933 19.766-1.635 1.189-3.419-1.338-2.527-2.527z" fill="#001032"/><path fill-rule="evenodd" clip-rule="evenodd" d="M149.5 80.098l-10.605 11.848v12.714h12.668l12.962-12.714h-10.606l-8.101 5.779 5.392-7.802-1.71-9.825z" fill="#DCAF54"/><circle cx="119.671" cy="120.679" r="67.085" stroke="#1448B6" stroke-width=".392"/></svg>