<svg width="537" height="523" fill="none" xmlns="http://www.w3.org/2000/svg"><path fill-rule="evenodd" clip-rule="evenodd" d="M478.229 177.575c22.413 55.156 3.925 117.612-23.356 169.571-29.088 55.403-71.159 104.982-129.973 122.46-61.838 18.376-109.627-4.381-165.512-38.756-57.198-35.183-110.743-89.048-117.553-157.041-6.384-63.748 44.364-113.706 85.73-160.714 32.141-36.525 52.205-55.68 99.859-62.253 43.813-6.045 82.749 18.487 122.774 38.712 47.828 24.167 107.449 37.371 128.031 88.021z" fill="#F8FBFF"/><path d="M347.734 259.499c0 49.835-40.399 90.234-90.233 90.234-49.835 0-90.234-40.399-90.234-90.234 0-49.834 40.399-90.233 90.234-90.233 49.834 0 90.233 40.399 90.233 90.233zm-152.123 0c0 34.181 27.709 61.89 61.89 61.89s61.89-27.709 61.89-61.89-27.709-61.89-61.89-61.89-61.89 27.709-61.89 61.89z" fill="#1448B6"/><circle cx="257.499" cy="259.501" r="29.657" fill="#DCAF54"/><path d="M255.481 257.923l50.165-43.855 5.994 7.257c-10.096 8.729-32.623 25.051-50.796 41.962-3.47 2.524-7.256-2.84-5.363-5.364z" fill="#001032"/><path fill-rule="evenodd" clip-rule="evenodd" d="M320.6 173.053l-22.716 25.871v27.764h27.133l27.765-27.764h-22.716l-17.353 12.62 11.55-17.037-3.663-21.454z" fill="#DCAF54"/><circle cx="257.5" cy="259.5" r="144.144" stroke="#1448B6" stroke-width=".712"/></svg>