<svg width="768" height="748" fill="none" xmlns="http://www.w3.org/2000/svg"><g clip-path="url(#clip0)"><path d="M751.968 479.375c-.598.051-1.158.086-1.67.11 2.064-.99 3.614-2.513 4.762-4.331 1.669-2.643 2.482-5.899 2.836-9.031.355-3.138.254-6.19.065-8.452a48.204 48.204 0 00-.305-2.726 36.714 36.714 0 00-.117-.762l-.034-.203-.01-.053-.003-.013v-.005c0-.001-.001-.001-.492.091l.491-.092-.076-.408H588.001c-2.891-.007-5.655-.867-7.648-2.854-1.991-1.985-2.844-4.762-2.853-7.647V307.001c.009-2.886.862-5.661 2.853-7.647 1.993-1.988 4.756-2.845 7.648-2.854h215.998c2.891.012 5.659.867 7.648 2.854 1.988 1.987 2.846 4.764 2.853 7.647v135.998c-.007 2.884-.863 5.662-2.853 7.647-1.992 1.987-4.758 2.847-7.648 2.854h-30.61l.121.599c1.388 6.903.407 11.893-1.782 15.513-2.194 3.628-5.641 5.945-9.304 7.42-3.664 1.476-7.513 2.095-10.456 2.343z" fill="#fff" stroke="#EBF1FE"/><path d="M346 533c103.398 0 188-83.886 188-187s-84.575-187-188-187-187 83.895-187 187 83.639 187 187 187zm0-372c102.395 0 186 82.894 186 185s-83.577 185-186 185-185-82.894-185-185 82.641-185 185-185z" fill="#fff"/><path d="M346 491c80.223 0 146-65.05 146-145s-65.777-145-146-145-145 65.05-145 145 64.777 145 145 145zm0-288c79.229 0 144 64.049 144 143s-64.771 143-144 143-143-64.049-143-143 63.807-143 143-143z" fill="#fff"/><path d="M427 406c19.778 0 39.555-6.012 56-17s28.431-26.727 36-45c7.569-18.272 9.858-38.602 6-58-3.859-19.398-13.015-37.015-27-51s-31.602-23.141-51-27c-19.398-3.858-39.728-1.569-58 6-18.273 7.569-34.012 19.555-45 36s-17 36.222-17 56c.031 26.512 10.253 52.253 29 71s44.488 28.969 71 29zm0-198c19.418 0 38.854 5.212 55 16 16.146 10.789 28.569 26.06 36 44 7.431 17.941 8.788 37.955 5 57-3.789 19.046-13.269 36.269-27 50-13.731 13.731-30.955 23.212-50 27-19.046 3.789-39.06 2.431-57-5-17.941-7.431-33.212-19.854-44-36-10.789-16.146-16-35.581-16-55 .031-26.03 10.594-50.594 29-69s42.97-28.969 69-29z" fill="#fff"/><path opacity=".2" d="M594 331h179c2.85 0 5 2.032 5 5v2c0 2.968-2.15 5-5 5H594c-2.85 0-5-2.032-5-5v-2c0-2.968 2.15-5 5-5zm0 52h179c2.85 0 5 2.032 5 5v2c0 2.968-2.15 5-5 5H594c-2.85 0-5-2.032-5-5v-2c0-2.968 2.15-5 5-5zm31 25h148c2.841 0 5 2.032 5 5v2c0 2.968-2.159 5-5 5H625c-2.841 0-5-2.032-5-5v-2c0-2.968 2.159-5 5-5zm76-51h72c2.851 0 5 2.032 5 5v2c0 2.968-2.149 5-5 5h-72c-2.851 0-5-2.032-5-5v-2c0-2.968 2.149-5 5-5z" fill="#1448B6"/><path opacity=".1" d="M753 471c.299-.67.642-1.34 1-2-.299.67-.642 1.34-1 2zm-49-169c-.042.51-.09 1.496 0 2 .453 2.285 2.679 3.175 4 5 3.089 4.278 4.025 9.727 4 15 0 3.993-.47 8.034 0 12 .471 3.966 3.027 8.521 7 9 1.466.172 2.978-.012 4 1 .41.472.876.388 1 1 1.15 4.39-.746 9.474-1 14-.306 5.609 1.686 10.46 5 15 1.316 1.885 3.008 3.851 5 5 3.104 1.671 6.471 2.108 10 2 9.394-.316 19.72-3.035 26-10 .168.412.067.56 0 1-.152.604-.56 1.558-1 2-6.262 7.227-16.443 9.675-26 10-3.52.126-6.941-.302-10-2-1.992-1.149-3.684-2.115-5-4-3.317-4.538-5.303-10.39-5-16 .263-4.517 2.177-9.61 1-14-.121-.611-.593-.527-1-1-1.031-1.048-2.506-.874-4-1-3.973-.461-6.529-5.034-7-9-.47-3.966-.027-8.007 0-12 .022-5.272-.919-9.718-4-14-1.321-1.807-3.556-3.724-4-6-.285-1.656.086-3.589 1-5zm-591-17c-.279.048-4.664-5.017-5-7-.267-1.25-1.925-2.296-3-3 0 0-2.768 1.235 0 5 2.768 3.765 8 5 8 5zM94 150l4 8c1.416-.114 3.655-.551 5-1-1.824.682-8-11-8-11-.508 1.982-1 4-1 4zm-65 50s-4.667 8.435-7 9l7-9zm14-4s-10.948 10.026-13 11c0 0 11.362-11 13-11zm56 164s-3.476 5.146-6 5c-2.524-.147 3.7-5.196 6-5zm-2 8s-1.615 4.291-4 3l4-3z" fill="#000"/><g opacity=".1" fill="#000"><path opacity=".1" d="M36 148h216c2.984.007 5.889.896 8 3 2.111 2.104 2.99 5.023 3 8v136c-.01 2.977-.889 5.896-3 8-2.111 2.104-5.016 2.993-8 3H83s-4.4 23.511 10 26c0 0-32.629 1.991-27-26H36c-2.983-.007-5.89-.896-8-3-2.11-2.104-2.993-5.024-3-8V159c.007-2.974.892-5.896 3-8s5.018-2.99 8-3z"/><path opacity=".2" d="M61 184h165c2.859 0 5 2.051 5 5v1c0 2.949-2.141 5-5 5H61c-2.86 0-5-2.051-5-5v-1c0-2.949 2.14-5 5-5zm31 47h134c2.851 0 5 2.051 5 5v1c0 2.949-2.149 5-5 5H92c-2.851 0-5-2.051-5-5v-1c0-2.949 2.149-5 5-5zm40-23h94c2.861 0 5 2.051 5 5v1c0 2.949-2.139 5-5 5h-94c-2.861 0-5-2.051-5-5v-1c0-2.949 2.139-5 5-5z"/></g><path d="M86.032 329.375c.598.051 1.158.086 1.67.11-2.064-.99-3.614-2.513-4.762-4.331-1.669-2.643-2.482-5.899-2.837-9.031-.354-3.138-.253-6.19-.064-8.452.095-1.133.212-2.071.305-2.726a32.671 32.671 0 01.152-.965l.009-.053.002-.013.001-.004v-.001L81 304l-.492-.092.077-.408h169.414c2.891-.007 5.655-.867 7.648-2.854 1.991-1.985 2.844-4.762 2.853-7.647V157.001c-.009-2.886-.862-5.661-2.853-7.647-1.993-1.988-4.756-2.845-7.648-2.854H34.001c-2.89.012-5.659.867-7.648 2.854-1.988 1.987-2.846 4.764-2.853 7.647v135.998c.007 2.884.863 5.662 2.853 7.647 1.992 1.987 4.758 2.847 7.648 2.854H64.61l-.12.599c-1.388 6.903-.407 11.893 1.782 15.513 2.194 3.628 5.64 5.945 9.304 7.42 3.664 1.476 7.513 2.095 10.456 2.343z" fill="#fff" stroke="#EBF1FE"/><path opacity=".2" d="M59 182h165c2.859 0 5 2.051 5 5v1c0 2.949-2.141 5-5 5H59c-2.86 0-5-2.051-5-5v-1c0-2.949 2.14-5 5-5zm31 47h134c2.851 0 5 2.051 5 5v1c0 2.949-2.149 5-5 5H90c-2.851 0-5-2.051-5-5v-1c0-2.949 2.149-5 5-5zm40-23h94c2.861 0 5 2.051 5 5v1c0 2.949-2.139 5-5 5h-94c-2.861 0-5-2.051-5-5v-1c0-2.949 2.139-5 5-5z" fill="#1448B6"/><g opacity=".1" fill="#000"><path opacity=".1" d="M188 380h234c3.235.01 5.713 1.712 8 4 2.287 2.288 3.99 4.765 4 8v148c-.01 3.235-1.713 5.712-4 8-2.287 2.288-4.765 3.99-8 4H239s-5.597 25.294 10 28c0 0-34.104 2.417-28-28h-33c-3.235-.01-5.713-1.712-8-4-2.287-2.288-3.99-4.765-4-8V392c.01-3.235 1.713-5.712 4-8 2.287-2.288 4.765-3.99 8-4z"/><path opacity=".2" d="M216 471h179c2.85 0 5 2.279 5 5v1c0 2.721-2.15 5-5 5H216c-2.85 0-5-2.279-5-5v-1c0-2.721 2.15-5 5-5zm107-26h72c2.851 0 5 2.279 5 5v1c0 2.721-2.149 5-5 5h-72c-2.851 0-5-2.279-5-5v-1c0-2.721 2.149-5 5-5z"/></g><path d="M245.807 577.405c.683.055 1.319.09 1.894.111-2.332-1.063-4.041-2.749-5.27-4.777-1.725-2.846-2.499-6.347-2.777-9.716-.279-3.374-.064-6.655.219-9.088a51.61 51.61 0 01.425-2.93c.062-.352.115-.629.153-.818l.044-.218.012-.056.004-.015v-.004l.001-.001.488.107-.488-.108.087-.392h183.4c3.036-.009 5.394-1.6 7.647-3.854 2.254-2.253 3.845-4.61 3.854-7.647V390.001c-.009-3.037-1.6-5.393-3.854-7.648-2.253-2.253-4.61-3.844-7.647-3.853H190.001c-3.037.009-5.394 1.6-7.647 3.853-2.254 2.255-3.845 4.611-3.854 7.648v147.998c.009 3.037 1.6 5.393 3.854 7.647 2.253 2.254 4.611 3.845 7.647 3.854h33.609l-.12.598c-1.508 7.517-.521 12.94 1.743 16.862 2.268 3.927 5.854 6.416 9.669 7.987 3.816 1.571 7.832 2.212 10.905 2.458z" fill="#fff" stroke="#EBF1FE"/><path opacity=".2" d="M218 469h179c2.85 0 5 2.279 5 5v1c0 2.721-2.15 5-5 5H218c-2.85 0-5-2.279-5-5v-1c0-2.721 2.15-5 5-5zm107-26h72c2.851 0 5 2.279 5 5v1c0 2.721-2.149 5-5 5h-72c-2.851 0-5-2.279-5-5v-1c0-2.721 2.149-5 5-5z" fill="#1448B6"/></g><defs><clipPath id="clip0"><path fill="#fff" transform="matrix(-1 0 0 1 863 0)" d="M0 0h982v748H0z"/></clipPath></defs></svg>