<svg width="758" height="578" fill="none" xmlns="http://www.w3.org/2000/svg"><g clip-path="url(#clip0)"><path fill-rule="evenodd" clip-rule="evenodd" d="M296.853 217.961c-11.456 11.823-25.856 20.779-43.586 25.149l12.604-1.878c-55.355 10.861-99.607 43.449-120.515 89.679-26.763 75.326-11.275 218.984 264.781 191.007 345.07-34.972 287.204-359.638 270.218-374.102-29.47-18.91-41.717-53.288-43.328-82.03C515.718 17.11 369.085 136.71 304.004 209.741a103.477 103.477 0 01-7.151 8.22z" fill="#EBF1FE"/><path d="M637.027 65.786c1.611 28.742 13.858 63.12 43.328 82.03-4.064-47.693-30.578-74.559-43.328-82.03z" fill="#EBF1FE"/><path opacity=".1" d="M415.723 440.728c-88.156 0-159.621-3.259-159.621-7.279 0-4.021 71.465-7.28 159.621-7.28s159.621 3.259 159.621 7.28c0 4.02-71.465 7.279-159.621 7.279z" fill="#1448B6"/><path d="M421.081 403.39c79.796 0 144.712-64.858 144.712-144.585 0-79.726-64.894-144.585-144.712-144.585-79.818 0-144.691 64.866-144.691 144.585 0 79.72 64.923 144.585 144.691 144.585zm0-287.765c79.023 0 143.306 64.234 143.306 143.18 0 78.947-64.262 143.18-143.306 143.18-79.044 0-143.306-64.233-143.306-143.18 0-78.946 64.311-143.18 143.306-143.18z" fill="#fff"/><path d="M421.081 370.944c61.885 0 112.244-50.308 112.244-112.139 0-61.83-50.359-112.138-112.244-112.138s-112.237 50.308-112.237 112.138c0 61.831 50.352 112.139 112.237 112.139zm0-222.872c61.119 0 110.838 49.676 110.838 110.733 0 61.058-49.719 110.733-110.838 110.733-61.118 0-110.83-49.675-110.83-110.733 0-61.057 49.74-110.733 110.83-110.733z" fill="#fff"/><path d="M421.081 336.094a77.4 77.4 0 0042.977-13.026 77.3 77.3 0 0028.491-34.686 77.221 77.221 0 004.402-44.655 77.265 77.265 0 00-21.171-39.572 77.383 77.383 0 00-39.607-21.153 77.421 77.421 0 00-44.695 4.399 77.336 77.336 0 00-34.716 28.466 77.238 77.238 0 00-13.037 42.939 77.344 77.344 0 0022.684 54.624 77.48 77.48 0 0054.672 22.664zm0-153.171a75.999 75.999 0 0142.196 12.788 75.903 75.903 0 0127.973 34.055 75.832 75.832 0 01-16.464 82.697 76.007 76.007 0 01-82.77 16.449 75.934 75.934 0 01-34.085-27.948 75.84 75.84 0 01-12.8-42.158 75.944 75.944 0 0122.272-53.631 76.072 76.072 0 0153.678-22.252z" fill="#fff"/><path opacity=".1" d="M634.436 526.953c-32.64 0-59.1-4.338-59.1-9.689s26.46-9.689 59.1-9.689c32.641 0 59.101 4.338 59.101 9.689s-26.46 9.689-59.101 9.689z" fill="#1448B6"/><g opacity=".1" fill="#000"><path opacity=".1" d="M530.835 248.793h180.304a9.459 9.459 0 016.655 2.766 9.44 9.44 0 012.768 6.649v113.825a9.44 9.44 0 01-2.768 6.649 9.459 9.459 0 01-6.655 2.766H569.696s-3.664 19.434 8.376 21.528c0 0-26.962 1.932-22.251-21.528h-24.986a9.459 9.459 0 01-6.655-2.766 9.436 9.436 0 01-2.768-6.649V258.208a9.436 9.436 0 012.768-6.649 9.459 9.459 0 016.655-2.766z"/><path opacity=".2" d="M551.947 279.006h138.088a3.986 3.986 0 013.987 3.984v.927c0 2.2-1.785 3.984-3.987 3.984H551.947a3.986 3.986 0 01-3.987-3.984v-.927c0-2.2 1.785-3.984 3.987-3.984zm0 39.754h138.088a3.986 3.986 0 013.987 3.984v.927a3.985 3.985 0 01-3.987 3.984H551.947a3.985 3.985 0 01-3.987-3.984v-.927c0-2.2 1.785-3.984 3.987-3.984zm23.573 19.87h114.515a3.986 3.986 0 013.987 3.984v.927a3.985 3.985 0 01-3.987 3.984H575.52a3.986 3.986 0 01-3.988-3.984v-.927c0-2.2 1.786-3.984 3.988-3.984zm59.156-39.747h55.359a3.986 3.986 0 013.987 3.984v.927a3.985 3.985 0 01-3.987 3.984h-55.359a3.985 3.985 0 01-3.987-3.984v-.927c0-2.2 1.785-3.984 3.987-3.984z"/></g><path d="M529.261 248.006h180.311a9.459 9.459 0 016.655 2.766 9.44 9.44 0 012.768 6.649v113.825a9.438 9.438 0 01-2.768 6.649 9.455 9.455 0 01-6.655 2.766H568.129s-3.671 19.434 8.376 21.521c0 0-26.962 1.932-22.251-21.521h-24.993a9.446 9.446 0 01-6.652-2.766 9.434 9.434 0 01-2.764-6.649V257.421a9.43 9.43 0 012.764-6.648 9.447 9.447 0 016.652-2.767z" fill="#fff"/><path opacity=".2" d="M550.371 278.219h138.088a3.985 3.985 0 013.988 3.984v.927c0 2.2-1.785 3.984-3.988 3.984H550.371a3.986 3.986 0 01-3.987-3.984v-.927a3.985 3.985 0 013.987-3.984zm0 39.754h138.088a3.986 3.986 0 013.988 3.984v.927c0 2.2-1.785 3.984-3.988 3.984H550.371a3.986 3.986 0 01-3.987-3.984v-.927c0-2.2 1.785-3.984 3.987-3.984zm23.573 19.877h114.515a3.986 3.986 0 013.988 3.984v.927a3.985 3.985 0 01-3.988 3.984H573.944a3.985 3.985 0 01-3.987-3.984v-.927c0-2.2 1.785-3.984 3.987-3.984zm59.156-39.754h55.359a3.986 3.986 0 013.988 3.984v.927c0 2.2-1.785 3.984-3.988 3.984H633.1a3.986 3.986 0 01-3.987-3.984v-.927c0-2.2 1.785-3.984 3.987-3.984z" fill="#1448B6"/><path d="M596.187 246.201l9.993 21.233s1.476 3.984 2.426 4.721c.949.738 5.147 13.35 5.147 13.35l10.711 16.54.703 1.124 4.219-1.159 2.947-11.01-.183-3.197v-.401s-6.631-6.928-8.101-7.455c0 0-1.153.134-3.369-5.234-2.215-5.368-4.219-6.534-4.219-6.534l-1.153-3.893-12.42-19.751s-10.408-14.916-13.242-8.298c-2.834 6.619 6.541 9.964 6.541 9.964zm41.491 150.817c.034.361.149.709.338 1.019 1.153 1.679 7.672 36.037 7.672 36.037-.52 2.319.942 6.942 1.899 9.043.956 2.101 3.052 13.026 3.052 13.026s.52 23.538 1.884 27.213c1.365 3.675-.436 11.558-.436 11.558.134 3.625-2.046 7.455-3.34 9.408-.098.127-.176.253-.253.358-.422.605-.703.949-.703.949a5.486 5.486 0 01-1.47 1.82c-.092.077-.19.147-.296.225a16.766 16.766 0 01-5.893 2.487l-.204.042c-.843.19-1.406.26-1.406.26l-.52 2.81 5.569 1.153 10.619.702s12.518.949 9.677-4.623c-.2-.38-.372-.775-.514-1.18a10.512 10.512 0 01-.288-.829c-1.709-5.354-.556-11.861-.556-11.861l2.448-18.935c3.987-17.65-3.151-37.302-3.151-37.302s.626-1.574-.745-5.565c-1.372-3.991 0-12.71 0-12.71s.703-11.242 1.68-16.814c.374-2.339.501-4.71.38-7.076a35.312 35.312 0 00-.38-4.145l-23.98-3.176s-1.35 3.879-1.083 6.106z" fill="#FFD2C6"/><path opacity=".1" d="M638.03 513.309l5.569 1.152 10.619.703s12.518.948 9.677-4.624a8.75 8.75 0 01-.513-1.18 10.517 10.517 0 01-.289-.829c-2.167.067-4.306.5-6.329 1.279-3.565 1.405-6.252-2.214-6.252-2.214l-1.73-3.302-.253-.478a17.78 17.78 0 01-.703.949 5.618 5.618 0 01-1.765 2.037l.295.619 1.681 3.513s-2.152.218-5.099.702a2.28 2.28 0 01-2.77-1.517l-.204.042c-.844.19-1.407.26-1.407.26l-.527 2.888z" fill="#000"/><path d="M632.876 515.929c.422 1.89 12.145 2.474 12.145 2.474s6.526-.633 8.354.892c1.828 1.525 7.215 1.159 7.426 1.159.211 0 3.045-.112 4.156-5.199 1.076-4.961-1.448-5.825-1.575-5.867a19.073 19.073 0 00-6.631 1.286c-3.566 1.405-6.252-2.206-6.252-2.206l-1.983-3.788c-.422.605-.704.949-.704.949a5.554 5.554 0 01-1.765 2.045l1.976 4.152s-2.151.218-5.098.703c-2.356.379-2.869-1.539-2.975-2.312a2.38 2.38 0 010-.316s-1.835.527-4.093 1.159a4.219 4.219 0 00-2.981 4.869z" fill="#1448B6"/><path d="M610.786 422.059c.281 1.68.57 6.029.57 6.029-.985 3.639 1.54 12.289 1.54 12.289l1.258 4.918c-.562 6.324 3.467 21.718 3.467 21.718s2.701 14.291 4.107 20.46c.84 3.424.594 7.023-.703 10.301-.07.168-.112.253-.112.253 0 .119-.05.231-.085.344-.035.112-.091.337-.148.499a7.565 7.565 0 01-1.406 2.346 7.04 7.04 0 01-.752.773l-.043.043a15.228 15.228 0 01-4.472 2.747l-.704.281c-.729.275-1.473.509-2.229.702a2.201 2.201 0 01-.253.057l.57 3.302 7.426-1.897 9.951-3.225 4.922-2.811s-.056-.267-.154-.78v-.084c-.043-.218-.085-.478-.148-.773-.837-4.286-2.743-16.441-1.786-25.364 1.188-11.067-3.425-26.342-4.55-29.981a18.155 18.155 0 01-.844-6.443c1.828-2.67 2.25-13.308 2.25-13.308s3.362-6.871 6.147-14.158a37.243 37.243 0 002.004-7.363c.324-1.775.461-3.579.408-5.382 0 0-22.588-20.594-25.064-.654-.084.703-.161 1.321-.239 1.954-2.166 18.226-1.195 21.584-.928 23.207z" fill="#FFD2C6"/><path opacity=".1" d="M610.786 505.84l.57 3.302 7.426-1.897 9.951-3.225 4.923-2.811s-.056-.267-.155-.78v-.084c-.042-.218-.084-.478-.148-.773l-.703-.07h-.056a9.372 9.372 0 00-4.17.562c-1.618.611-3.742 1.307-4.178 1.012a5.323 5.323 0 00-2.384-.422l-1.033-2.262-.148-.344a7.515 7.515 0 01-1.406 2.346 7.845 7.845 0 01-.795.815l.042.801.056 1.132a14.487 14.487 0 01-3.572 1.651 2.084 2.084 0 01-.999 0l-.703.281c-.73.275-1.474.51-2.229.702a2.192 2.192 0 01-.289.064z" fill="#000"/><path d="M614.471 512.887c2.075-.597 7.075-1.546 7.883-.808.809.737 7.736 0 7.736 0a4.224 4.224 0 003.579-2.108c1.407-2.241.275-9.492.275-9.492l-.514-.05-.858-.084h-.056a9.272 9.272 0 00-4.17.562c-1.618.604-3.741 1.3-4.177 1.012a5.231 5.231 0 00-2.384-.422l-1.182-2.606a7.565 7.565 0 01-1.406 2.346 7.845 7.845 0 01-.795.815l.099 1.933a14.563 14.563 0 01-3.573 1.644 1.409 1.409 0 01-1.716-.541 1.056 1.056 0 01-.126-.288c-.064.119-.746.351-2.933.976-2.377-.133-4.669.9-5.724 4.118-1.055 3.218 8.01 3.583 10.042 2.993z" fill="#1448B6"/><path opacity=".1" d="M637.678 397.018c.464.134.886.26 1.28.387 1.012.309 2.05.528 3.101.653 6.632.934 17.581.372 21.048.155a35.31 35.31 0 00-.38-4.146l-23.98-3.176s-1.336 3.9-1.069 6.127z" fill="#000"/><path d="M616.778 391.2s8.805 1.363 15.964 2.93c2.391.52 4.599 1.061 6.23 1.595 1.014.303 2.051.522 3.101.653 7.975 1.118 22.138.085 22.138.085 3.889-12.605-4.725-28.477-4.725-28.477.204-1.265-1.794-5.144-1.794-5.144l-.035-.126-1.223-4.497h-32.708l-.401 1.932-.83 3.935-5.133 24.36-.584 2.754z" fill="#1448B6"/><path opacity=".1" d="M611.714 398.845l.197.084 3.826 1.693c4.142 1.911 16.54 2.27 20.872 2.305.324-1.775.461-3.579.408-5.382 0 0-22.588-20.594-25.064-.654-.084.71-.161 1.321-.239 1.954z" fill="#000"/><path d="M611.11 396.899l.802.351 3.825 1.7c4.22 1.939 17.012 2.284 21.097 2.305h1.076c1.892-.063 3.784-1.834 3.784-2.298 0-.253.197-1.496.365-2.564.141-.858.268-1.595.268-1.595s8.438-3.64 12.721-6.584c3.214-2.185 2.405-17.713 1.779-25.519a194.745 194.745 0 00-.407-4.462l-33.109 1.933-4.641.267-2.659.59-.703.147s-1.899 13.87-2.813 15.022c-.914 1.153-.323 5.045-.211 7.258.005.945.108 1.887.31 2.811 0 0-1.365 3.892-1.041 6.07a12.097 12.097 0 01-.443 4.568z" fill="#1448B6"/><path d="M646.545 281.718c-7.492 0-13.565-6.068-13.565-13.554 0-7.485 6.073-13.553 13.565-13.553 7.492 0 13.566 6.068 13.566 13.553 0 7.486-6.074 13.554-13.566 13.554z" fill="#FFD2C6"/><path d="M653.15 273.821s-.943 12.837 1.68 15.78c2.623 2.944 9.466 8.509 9.466 8.509l-2.11 8.72-11.885 1.37-13.881-14.818 3.157-3.886s2.419-8.199.422-12.296c-1.997-4.096 13.151-3.379 13.151-3.379z" fill="#FFD2C6"/><path opacity=".1" d="M624.464 302.045l.703 1.124 4.219-1.159 2.947-11.01-.183-3.197-.865-1.244s-4.627.113-4.423 4.314c.204 3.689-1.899 9.767-2.398 11.172zm-9.148 60.797s3.347.745 7.18 1.244c3.832.499 8.256.752 10.07-.302 3.045-1.799 19.543-1.286 24.276-1.103.338 0 .605 0 .816.035l-1.224-4.497h-32.708l-.4 1.932-4.642.267-2.658.591c-.443 1.089-.71 1.833-.71 1.833z" fill="#000"/><path d="M632.137 287.395s-4.627.106-4.416 4.307c.211 4.202-2.525 11.453-2.525 11.453l1.055 2.417s1.47 5.881.316 7.356c-1.153 1.476-5.365 1.469-2.946 13.554 0 0 .52 9.036-.739 11.98-1.258 2.944-1.258 9.977-3.15 12.921-1.892 2.944-4.424 9.773-4.424 9.773s13.678 3.043 17.251.942c3.572-2.101 25.556-1.033 25.556-1.033s-.106-3.682 0-4.096a3.509 3.509 0 00-.528-2.684c-.703-.998-1.891-2.677-1.259-4.146.633-1.468-1.582-3.639-.422-5.916 1.161-2.276 2.567-2.733 2.286-3.977-.281-1.243.45-2.93 1.287-3.976.837-1.047 6.526-12.156 6.526-12.156l.942-5.206s7.321-5.361 7.187-7.884c-.133-2.522-2.77-6.014-2.77-6.014l-7.033-6.907s-3.889 4.216-7.672 2.733c-3.783-1.482-11.948-8.508-11.948-8.508s-2.912-1.574-3.122-2.726c-.211-1.153-1.998-.106-1.998-.106s-2.63-1.44-3.157-.934c-.528.506-2.813.934-2.813.934l-1.484-2.101z" fill="#DCAF54"/><path d="M671.892 309.282l2.243 1.749s2.279 4.104 2.813 11.453c.535 7.349 2.813 17.748 2.813 17.748l4.416 7.891s7.279 15.225 8.221 19.265c.943 4.04 5.26 10.877 5.26 10.877s14.621 13.125 4.417 15.458c-10.204 2.332-10.514-10.448-10.514-10.448s-2.384-2.628-2.77-4.413c-.387-1.784-13.32-24.641-13.32-24.641s-4.529-6.148-3.579-9.401c0 0-5.886-13.834-5.886-17.305.111-2.888.426-5.764.942-8.607l-.942-7.251 5.886-2.375z" fill="#FFD2C6"/><path opacity=".1" d="M641.603 338.251s10.309 5.389 12.306 5.67c1.997.281-8.727-1.124-8.727-1.124l-3.579-4.546zm-8.411 4.201s13.671 4.624 19.691 3.781c-.028 0-14.958 2.838-19.691-3.781z" fill="#000"/><path opacity=".1" d="M632.348 343.963s12.307 7.729 19.564 6.471c0 0-16.934 3.366-19.564 1.581l7.574-2.108s-8.418-4.44-7.574-5.944zm14.178-99.645c3.559-.703 7.504-.281 10.352 1.953 2.11 1.658 3.516 4.216 5.886 5.424 1.254.527 2.539.98 3.847 1.356a11.096 11.096 0 015.458 4.799 11.077 11.077 0 011.314 7.146c-.373 2.108-1.35 4.005-1.829 6.056-.858 3.668-.105 7.511.83 11.158a117.364 117.364 0 0011.709 28.969c.413.563.619 1.25.584 1.946a2.814 2.814 0 01-.703 1.244c-4.86 5.621-12.771 7.539-20.197 7.792-2.736.091-5.626 0-8.003-1.328a12.08 12.08 0 01-3.903-3.576 18.96 18.96 0 01-3.643-12.233c.204-3.513 1.406-7.089.499-10.497a2.806 2.806 0 00-.633-1.286c-.801-.815-2.109-.604-3.263-.738-3.087-.358-5.084-3.611-5.45-6.689-.365-3.077.408-6.19.422-9.288a19.444 19.444 0 00-3.664-11.439c-1.026-1.405-2.342-2.81-2.686-4.574-.436-2.213.851-3.843 1.962-5.621 1.723-2.726 2.567-5.909 5.19-7.989a14.016 14.016 0 015.921-2.585z" fill="#000"/><path d="M647.37 243.474c3.551-.702 7.503-.281 10.351 1.961 2.11 1.651 3.516 4.215 5.886 5.424 1.252.526 2.534.976 3.84 1.349a11.096 11.096 0 016.779 11.944c-.372 2.108-1.35 4.005-1.835 6.064-.858 3.668-.099 7.504.83 11.151a117.427 117.427 0 0011.687 28.969c.414.559.618 1.245.577 1.939-.119.47-.361.899-.703 1.243-4.867 5.621-12.771 7.54-20.197 7.793-2.736.098-5.626-.001-8.003-1.321a12.126 12.126 0 01-3.903-3.584 18.963 18.963 0 01-3.622-12.204c.204-3.513 1.407-7.09.493-10.504a2.813 2.813 0 00-.626-1.286c-.802-.815-2.11-.605-3.27-.703-3.088-.358-5.078-3.611-5.443-6.696-.366-3.084.4-6.183.422-9.288a19.45 19.45 0 00-3.657-11.474c-1.027-1.405-2.335-2.811-2.68-4.581-.436-2.214.844-3.837 1.955-5.621 1.723-2.726 2.567-5.909 5.197-7.982a13.95 13.95 0 015.922-2.593z" fill="#985C7E"/><path opacity=".1" d="M651.912 374.85s-2.7 12.605-7.187 16.041l7.187-16.041zm21.512-107.887c.141-.492.303-.984.472-1.469-.141.492-.303.984-.472 1.469zm-38.369-11.003c-.033.397-.014.796.057 1.187.351 1.778 1.659 3.162 2.686 4.581a19.39 19.39 0 013.664 11.432c0 3.106-.781 6.204-.415 9.289.366 3.084 2.356 6.323 5.443 6.696 1.139.133 2.468-.085 3.263.702.319.367.537.81.633 1.286.893 3.415-.295 6.984-.492 10.504a18.96 18.96 0 003.614 12.205 12.197 12.197 0 003.903 3.583c2.412 1.3 5.268 1.405 8.01 1.321 7.3-.246 15.064-2.108 19.944-7.525.13.32.171.67.12 1.012-.119.47-.362.899-.704 1.243-4.866 5.621-12.77 7.54-20.197 7.792-2.735.099-5.626 0-8.002-1.32a12.191 12.191 0 01-3.903-3.584 18.951 18.951 0 01-3.622-12.204c.204-3.513 1.406-7.09.492-10.504a2.804 2.804 0 00-.626-1.286c-.801-.815-2.109-.605-3.27-.703-3.087-.358-5.077-3.611-5.443-6.696-.366-3.084.401-6.183.422-9.288a19.446 19.446 0 00-3.657-11.432c-1.027-1.405-2.335-2.811-2.679-4.581a5.203 5.203 0 01.759-3.71z" fill="#000"/><path opacity=".1" d="M163.59 375.145c-30.119 0-54.536-4.001-54.536-8.937 0-4.936 24.417-8.937 54.536-8.937 30.12 0 54.536 4.001 54.536 8.937 0 4.936-24.416 8.937-54.536 8.937z" fill="#1448B6"/><path d="M100.096 189.97c-2.23-7.469 0-14.938 0-14.938v-7.026s-2.546-13.779 8.79-22.617l7.525-6.626s4.219-3.612 5.436-3.844a5.57 5.57 0 01.703-.105l.225-.126a22.64 22.64 0 001.646-3.464 3.224 3.224 0 01-2.68-.914 3.525 3.525 0 01-.633-1.054c-.436-.976-.506-2.157-.879-3.197a7.461 7.461 0 00-1.406-2.297c.077.126.155.246.225.372-1.062-1.321-2.454-2.459-3.446-3.857a8.461 8.461 0 01-.548-.857l.147.175c-1.406-2.22-1.807-4.918-2.208-7.504a6.775 6.775 0 01-.042-2.684 8.957 8.957 0 01.752-1.7c1.632-3.373 1.597-7.602 4.22-10.293 1.962-2.017 4.922-2.635 7.735-2.98 2.813-.344 5.746-.54 8.151-2.009a8.836 8.836 0 012.208-1.215 1.824 1.824 0 012.173.808c.049.214.148.413.288.583a.942.942 0 00.837.049l3.727-.998-.042.19h.092l-.134.59c-.119 0-.246 0-.352.204l.598.92a9.241 9.241 0 003.369-.702c.003.06.003.121 0 .182h.049c.07 1.054-1.125 1.736-1.491 2.727a2.062 2.062 0 000 1.334c.156.402.396.766.703 1.068 1.329 1.307 3.017 1.047 4.543 1.876a.969.969 0 01.556.612.47.47 0 01.049.337.784.784 0 01-.309.386c-.445.358-.931.66-1.449.9l.436.421a16.672 16.672 0 01-5.767 27.199c-.056.288-.098.583-.14.899v.084l-.042.401 5.028 2.108a3.994 3.994 0 002.135-.635 3.986 3.986 0 001.465-1.677c1.168-2.417 5.296 0 5.296 0s12.609-.948 17.271 1.37c0 0 7.525-3.155 8.58-3.365 1.055-.211 2.651-1.054 3.396-.843.746.21 1.695-1.406 2.223-1.265.527.14.703-1.047 2.433-1.469 1.73-.421 2.335.106 4.219-1.791 1.885-1.897 17.377-9.359 17.377-9.359l6.99-5.684 7.42-5.888.133.246c.042-.176.092-.359.141-.548a70.117 70.117 0 012.75-8.643c.478-1.138.703-2.578 1.329-1.82.393.457 1.069-.54 2.109-1.215a1.76 1.76 0 011.49-.245 1.749 1.749 0 011.126 1.004c5.774 9.043 7.842 9.696 4.494 13.005-2.975 2.951-4.958 5.558-7.391 6.324l-.288.091a.397.397 0 00.161 0l-14.064 16.828s-10.169 8.839-17.166 11.678c-6.998 2.838-6.463 3.681-6.463 3.681s-21.189 10.729-24.473 10.54c-3.284-.19-2.651 21.985-1.273 25.561 1.379 3.576 3.601 29.454 3.601 29.454s2.11 5.466-.106 9.253c0 0-.492 7.251-.049 8.987 1.934 2.972 4.684 8.017 5.134 13.209 0 .274.056.534.084.801.141.164.31.302.5.407 0 0-.183-.042-.472-.14.211 2.157.683 4.28 1.407 6.324a25.752 25.752 0 011.73 9.134v16.715l1.399 10.364s1.695 7.848 0 9.675a4.443 4.443 0 00-.928 3.225 5.966 5.966 0 01-1.083 3.759 2.854 2.854 0 00-.703 2.417c.562 1.819-.83 21.17-.83 21.17s.408 5.333.97 5.621c.563.288-.942 6.126-.942 6.126s5.724 4.771 4.269 7.301l-1.463 2.241.387.379.239.239c.44-.254.953-.351 1.456-.274a54.454 54.454 0 005.759 5.122c2.581 1.862 9.606 4.56 9.606 4.56l5.542.45h.105s2.652-.246 1.168 3.857c-1.484 4.104-14.768 2.811-14.768 2.811l-7.736-1.223s-13.84.064-17.799-.808c-1.66-.372-2.053-1.25-1.948-2.15l.042-.042a5.508 5.508 0 011.133-2.325c.03-.043.062-.082.098-.12l-.253-2.81c-5.872-3.38 1.659-10.034 1.659-10.034s-2.573-5.621-3.902-7.426c-1.33-1.806-1.323-28.611-1.323-28.611s-.703-9.682 1.133-11.945a4.04 4.04 0 00-1.976-3.646c-1.308-.893-5.261-13.181-8.362-23.384l-1.955 12.022s.422 5.748-.851 7.434a2.85 2.85 0 00-.52 2.234 9.93 9.93 0 01-.289 4.87 3.152 3.152 0 01-1.019 1.728c-1.133.562-1.203 2.565-1.625 2.986-.422.422-3.038-.597-3.178.942a34.081 34.081 0 000 4.068l-.851 24.964s1.406 2.108 1.694 7.574c.12 2.361.563 3.703 1.02 4.469a2.281 2.281 0 01-.211 2.684l-.246.281 1.048.808a2.281 2.281 0 01.647 2.81 2.26 2.26 0 01.654 2.424 2.819 2.819 0 01-.183.394 3.966 3.966 0 012.11 1.04 17.29 17.29 0 003.727 3.752 70.285 70.285 0 015.949 5.087 8.543 8.543 0 003.474 2.81c.339.137.69.24 1.048.309 2.813.569 1.906 3.478-.352 3.935-2.257.457-9.746 2.768-15.576 1.405 0 0-1.73.703-4.269-.59s-8.319-2.81-8.319-2.81-3.179 0-3.601-1.265a4.873 4.873 0 01-.183-1.23l-.091-.084.084-.077a16.64 16.64 0 01.472-4.069c.274-1.053.773-2.41.991-2.986a.964.964 0 01-.098-.147c-1.21-2.045.801-7.026.801-7.026a13.43 13.43 0 00-2.398-2.811c-1.132-.836-4.1-22.716-4.1-22.716s.141-5.621-1.406-8.136c-1.547-2.515 2.11-17.811 2.11-17.811s1.554-3.513.984-4.771c-.569-1.258.57-5.888.57-5.888v-5.523a6.067 6.067 0 01.323-1.939c.436-1.3 1.083-3.794.38-5.621-.992-2.522-3.249-18.092-3.249-18.092s1.765-6.865-.816-12.331a11.836 11.836 0 00-.703-1.272c-1.913-3.007-1.343-8.347-.401-12.647.148-.668.303-1.307.457-1.918.071-.26.141-.506.204-.752l-.302-.127s0-.414-.092-1.11a7.743 7.743 0 01-5.098-3.513s-6.463-7.258-12.187-10.307c-5.725-3.05-6.146-7.469-6.146-7.469.85-1.476-1.512-7.469-1.512-7.469l.239-6.485zm18.614 9.675l6.119 7.089a.148.148 0 000-.042c1.589-2.206-1.484-7.153-1.484-7.153l-5.057-11.319c.043 1.462.218 2.74.662 3.345 1.406 1.897-2.539 5.052-2.539 5.052 2.117-.022 2.328 3.028 2.328 3.028h-.029z" fill="url(#paint0_linear)"/><path d="M226.466 106.716l3.334 6.472a12.91 12.91 0 003.108-.647 11.795 11.795 0 007.3-6.323c2.981-6.591-1.955-10.849-4.255-12.1-2.3-1.25-4.43-2.69-6.153 1.406a71.235 71.235 0 00-2.715 8.586c-.38 1.559-.619 2.606-.619 2.606zm-106.132 33.726l5.331 7.947s25.218 12.015 20.394-2.108c-2.11-6.218-2.37-10.771-1.991-13.919v-.084c.493-3.935 1.976-5.621 1.976-5.621s-24.578-12.563-20.921-3.97a11.928 11.928 0 01.872 5.656 19.255 19.255 0 01-2.651 7.848 25.997 25.997 0 01-3.01 4.251z" fill="#CC818C"/><path d="M127.971 297.682s-3.628 15.19-2.109 17.699c1.519 2.508 1.406 8.08 1.406 8.08s2.933 21.746 4.051 22.582a13.369 13.369 0 012.37 2.81s-1.991 4.919-.795 6.956c.18.315.46.562.795.703 1.87.787 8.776-2.705 12.707-4.848.495-.264.868-.71 1.041-1.244a2.214 2.214 0 00-.64-2.403 2.289 2.289 0 00-.64-2.81l-1.034-.801.239-.281a2.286 2.286 0 00.211-2.67c-.45-.759-.886-2.108-1.005-4.434-.282-5.438-1.674-7.525-1.674-7.525l.837-24.809a35.357 35.357 0 010-4.04c.14-1.532 2.721-.52 3.136-.942.415-.421.493-2.403 1.604-2.965a3.12 3.12 0 001.012-1.714 9.982 9.982 0 00.289-4.841 2.843 2.843 0 01.513-2.221c1.259-1.672.837-7.384.837-7.384l1.927-11.945c3.066 10.139 6.969 22.351 8.256 23.236a4.017 4.017 0 011.955 3.625c-1.815 2.228-1.118 11.847-1.118 11.847s0 26.615 1.308 28.428c1.308 1.812 3.853 7.384 3.853 7.384s-7.475 6.647-1.596 9.998l.063.036c5.999 3.344 18.411-5.987 18.411-5.987l-1.294-1.293-.38-.379 1.407-2.234c1.442-2.509-4.22-7.244-4.22-7.244s1.505-5.853.95-6.134c-.556-.281-.95-5.579-.95-5.579s1.372-19.231.816-21.036a2.807 2.807 0 01.661-2.403 6 6 0 001.069-3.731 4.44 4.44 0 01.914-3.204c1.674-1.813 0-9.619 0-9.619l-1.406-10.315v-16.427a25.972 25.972 0 00-1.688-9.218 27.844 27.844 0 01-1.519-7.42c-.457-5.284-3.298-10.42-5.211-13.35-1.012-1.545-1.765-2.473-1.765-2.473l-44.635-1.749s-.703 1.988-1.406 4.749a45.74 45.74 0 00-.45 1.904c-.935 4.286-1.498 9.591.394 12.584.264.402.499.822.703 1.258 2.553 5.431.809 12.254.809 12.254s2.229 15.457 3.206 17.98c.704 1.777.057 4.258-.379 5.55a6.18 6.18 0 00-.317 1.926v5.487s-1.118 4.595-.562 5.853c.555 1.258-.957 4.743-.957 4.743z" fill="#444053"/><path opacity=".1" d="M125.917 243.025c.26.404.495.824.703 1.257l2.511-.14c-.239-1.293 1.47-13.413 1.47-13.413l-5.064-.288c-.942 4.314-1.512 9.626.38 12.584z" fill="#000"/><path d="M125.503 242.638c.265.402.5.822.703 1.258l2.518-.141c-.246-1.293 1.463-13.42 1.463-13.42l-5.057-.281c-.956 4.286-1.519 9.591.373 12.584z" fill="#444053"/><path opacity=".05" d="M125.503 242.638c.265.402.5.822.703 1.258l2.518-.141c-.246-1.293 1.463-13.42 1.463-13.42l-5.057-.281c-.956 4.286-1.519 9.591.373 12.584z" fill="#000"/><path opacity=".1" d="M132.894 355.788c.18.315.459.562.794.703 1.871.787 8.777-2.705 12.708-4.848.495-.264.868-.71 1.041-1.244-2.237-.407-3.707 2.108-3.707 2.108a3.293 3.293 0 00-3.722.143 3.293 3.293 0 00-.877.974c-1.919 2.811-6.033 1.63-6.033 1.63s-.085.19-.204.534z" fill="#000"/><path d="M131.734 364.332c.422 1.251 3.558 1.251 3.558 1.251s5.626 1.609 8.13 2.859c2.503 1.251 4.219.59 4.219.59 5.759 1.328 13.15-.969 15.38-1.405 2.229-.435 3.108-3.344.351-3.899a5.63 5.63 0 01-1.033-.316 8.4 8.4 0 01-3.432-2.811 71.196 71.196 0 00-5.872-5.059 16.949 16.949 0 01-3.685-3.724c-3.277-2.894-5.626 1.082-5.626 1.082a3.305 3.305 0 00-3.723.143 3.295 3.295 0 00-.876.975c-1.92 2.81-6.034 1.63-6.034 1.63s-.703 1.883-1.083 3.239c-.084.344-.176.78-.253 1.257a10.968 10.968 0 00-.021 4.188z" fill="#1448B6"/><path d="M141.325 355.521a.387.387 0 110-.774.387.387 0 010 .774zm3.276 3.064a.386.386 0 110-.773.386.386 0 010 .773zm3.335 2.754a.386.386 0 110-.773.386.386 0 010 .773zm-1.723-1.23a.386.386 0 110-.772.386.386 0 010 .772zm-3.319-3.154a.387.387 0 110-.773.387.387 0 010 .773z" fill="#575988"/><path d="M131.734 364.332c.422 1.251 3.558 1.251 3.558 1.251s5.626 1.609 8.129 2.859c2.504 1.251 4.22.59 4.22.59 5.759 1.328 13.15-.969 15.38-1.405 2.229-.435 3.108-3.344.351-3.899a5.556 5.556 0 01-1.033-.317 26.734 26.734 0 01-7.546 1.406c-5.682.239-10.183 0-10.183 0l-5.753-1.848a9.621 9.621 0 00-3.558-1.293 9.128 9.128 0 01-3.516-1.532 10.969 10.969 0 00-.049 4.188z" fill="#DCE6F2"/><path opacity=".5" d="M146.052 367.936c.321 0 .642-.033.956-.098l-.084-.407a6.056 6.056 0 01-3.446-.478 16.6 16.6 0 01-1.526-.703 17.707 17.707 0 00-1.814-.794l-.57-.197c-.316-.105-.633-.21-.935-.344-.176-.07-.345-.154-.514-.232a5.733 5.733 0 00-1.294-.491 5.93 5.93 0 00-.703-.092 5.879 5.879 0 01-.633-.077 5.498 5.498 0 01-1.209-.45c-.414-.21-.85-.37-1.301-.478l-.31-.056a1.479 1.479 0 01-.9-.33l-.302.288a1.88 1.88 0 001.139.457l.288.049c.42.102.826.253 1.21.45.413.21.85.37 1.301.477.232.046.467.075.703.085.219.016.438.044.654.084.416.106.817.262 1.196.464l.527.239c.324.133.647.246.971.351l.555.197c.605.225 1.203.506 1.786.773.584.267 1.02.484 1.547.702a7.439 7.439 0 002.708.611z" fill="#575988"/><path opacity=".1" d="M144.708 298.693s-2.897-4.216-7.848-4.145c-4.951.07-7.075-.555-7.075-.555s3.172 1.876 5.366 2.108c2.194.231 9.557 2.592 9.557 2.592zm-1.673.977s-2.616-1.813-4.114-1.883c-1.498-.07-2.813-.211-2.813-.211a7.944 7.944 0 002.299 1.117c1.28.352 4.628.977 4.628.977zm-.556 1.251s-3.946.316-3.981 1.363l3.981-1.363zm36.688-58.753c-.204.035-3.72-3.661-3.966-5.123a3.587 3.587 0 00-1.533-2.248s-2.272.906-.246 3.682c2.025 2.775 5.745 3.689 5.745 3.689zm-54.023-119.523c.802 1.897 1.512 2.037 1.357 3.878a14.007 14.007 0 003.193 2.509c2.497 1.482 5.211 4.377 8.319 4.377 2.08.004 4.141-.384 6.076-1.145.493-3.935 1.976-5.621 1.976-5.621s-24.564-12.591-20.921-3.998z" fill="#000"/><path d="M121.382 115.956a16.613 16.613 0 0010.267 15.352 16.637 16.637 0 009.61.945 16.632 16.632 0 008.515-4.547 16.6 16.6 0 003.605-18.109 16.613 16.613 0 00-6.125-7.458 16.642 16.642 0 00-9.24-2.8 16.635 16.635 0 00-11.762 4.865 16.605 16.605 0 00-4.87 11.752z" fill="#CC818C"/><path opacity=".1" d="M120.334 140.442l5.331 7.947s25.218 12.014 20.394-2.108c-2.11-6.218-2.37-10.771-1.991-13.919h-.042a13.161 13.161 0 00-.499 3.204c-.077 2.164-.134 4.918-5.521 5.817-8.98 1.511-13.804-4.103-14.648-5.206a25.985 25.985 0 01-3.024 4.265zm106.132-33.726l3.334 6.471a12.908 12.908 0 003.108-.646l.288-.344c-1.364.52-5.963-8.158-5.963-8.158l-.148.12c-.38 1.51-.619 2.557-.619 2.557zM125.56 228.15c10.766 4.672 48.024.703 48.024.703a4.73 4.73 0 01-.19-1.216c-1.013-1.546-1.765-2.473-1.765-2.473l-44.635-1.75s-.724 1.975-1.434 4.736z" fill="#000"/><path d="M144.005 132.748l4.965 2.108a3.963 3.963 0 003.558-2.304c1.147-2.403 5.225 0 5.225 0s12.455-.942 17.054 1.363c0 0 7.426-3.141 8.439-3.345 1.012-.203 2.616-1.047 3.347-.836.732.211 1.674-1.363 2.194-1.258.521.106.739-1.046 2.412-1.461 1.674-.415 2.3.105 4.185-1.778 1.884-1.883 17.152-9.302 17.152-9.302l6.905-5.621 7.321-5.853s4.606 8.67 5.964 8.15l-13.91 16.723s-10.043 8.782-16.948 11.6c-6.906 2.817-6.379 3.661-6.379 3.661s-20.928 10.658-24.17 10.455c-3.242-.204-2.616 21.844-1.252 25.399 1.364 3.556 3.551 29.264 3.551 29.264s2.11 5.432-.098 9.198c0 0-.527 7.729 0 9.092 0 0-37.49 4.005-48.123-.703 0 0-1.568-17.348 0-19.547 1.569-2.199-1.469-7.103-1.469-7.103l-6.646-14.98-16.301-16.42s-2.51-13.695 8.678-22.484l7.433-6.584s4.156-3.59 5.366-3.815c1.209-.225.766 0 .766 0s4.853 7.026 14.768 5.382c5.387-.906 5.443-3.647 5.521-5.818.033-1.077.198-2.146.492-3.183z" fill="#67647E"/><path opacity=".1" d="M123.577 189.014s23.017.942 27.616 8.158c0 0-5.964-2.811-11.294-1.989-5.331.822-16.322-6.169-16.322-6.169zm25.42 25.203s-10.879.703-13.186-1.567c-2.306-2.269-2.306-3.653-2.306-3.653l15.492 5.22zm-27.614-47.356s9.205 10.869-1.99 15.57l1.99-15.57zm54.5-21.009s-3.348 6.823-5.021 7.279l5.021-7.279zm11.294-2.93s-8.369 7.525-9.937 8.256c0 0 8.685-8.256 9.937-8.256zm-33.369-7.209s8.059 12.015 2.813 19.336c.042 0 2.939-8.677-2.813-19.336z" fill="#000"/><path d="M133.506 226.752l2.462 2.312.344.323 2.848 2.691c.211.154.408.309.612.449 11.604 8.312 13.931-4.314 13.931-4.314s5.127 3.345 5.858.626c.732-2.719-11.955-6.584-13.804-6.373a2.517 2.517 0 01-.506 0 7.976 7.976 0 01-2.602-.92c-.19-.099-.38-.197-.563-.303a20.892 20.892 0 01-1.878-1.18l-6.702 6.689z" fill="#CC818C"/><path opacity=".1" d="M120.96 115.956a16.61 16.61 0 008.129 14.284c.23-.388.432-.792.605-1.208.598-1.406.964-2.874 1.561-4.265.676-1.52 1.63-2.9 2.813-4.068.189-.227.43-.403.704-.513a2.012 2.012 0 011.526.421c.704.48 1.491.825 2.32 1.019a2.47 2.47 0 002.328-.703c.647-.772.556-1.911.366-2.901-.401-2.165-1.083-4.286-1.083-6.486 0-2.199.83-4.574 2.742-5.663 1.688-.955 3.784-.702 5.662-1.229.29-.078.574-.176.85-.295a16.653 16.653 0 00-18.178-3.785 16.64 16.64 0 00-7.532 6.117 16.613 16.613 0 00-2.834 9.275h.021z" fill="#000"/><path d="M150.631 101.707c.302.161.632.449.541.787a.77.77 0 01-.302.386 7.201 7.201 0 01-2.63 1.349c-1.878.506-3.981.267-5.669 1.23-1.905 1.089-2.749 3.457-2.742 5.656.007 2.199.703 4.328 1.09 6.485.183.998.281 2.108-.373 2.909a2.477 2.477 0 01-2.328.702 6.864 6.864 0 01-2.313-1.011 2.01 2.01 0 00-1.526-.422 1.856 1.856 0 00-.746.506 13.212 13.212 0 00-2.813 4.075c-.605 1.405-.97 2.867-1.561 4.265a6.88 6.88 0 01-2.813 3.471 3.518 3.518 0 01-4.219-.443c-.971-1.068-.943-2.684-1.407-4.054-.83-2.368-3.15-3.857-4.599-5.902-1.632-2.297-2.11-5.199-2.525-7.981a6.706 6.706 0 01-.042-2.67 9.622 9.622 0 01.739-1.687c1.617-3.344 1.582-7.553 4.163-10.23 1.941-2.002 4.88-2.614 7.651-2.95 2.771-.338 5.675-.549 8.052-2.003a8.86 8.86 0 012.18-1.209 1.794 1.794 0 012.145.801c.049.214.148.414.288.583a.918.918 0 00.816.05l3.685-.991-.422 1.855a9.203 9.203 0 003.91-.703c.07 1.047-1.111 1.729-1.477 2.705a2.503 2.503 0 00.704 2.55c1.364 1.329 3.038 1.069 4.543 1.891z" fill="#585268"/><path opacity=".1" d="M165.559 351.439l.148 1.672.063.035c5.999 3.345 18.411-5.986 18.411-5.986l-1.294-1.293a2.245 2.245 0 00-.562 1.743l-2.539.14-3.031 3.274s-8.207.949-10.429.415h-.767z" fill="#000"/><path d="M166.607 360.538c3.903.864 17.581.801 17.581.801l7.637 1.215s13.144 1.258 14.607-2.81c1.462-4.068-1.147-3.829-1.147-3.829h-.098l-5.471-.443s-6.941-2.684-9.487-4.532a54.6 54.6 0 01-5.682-5.087s-2.286-.443-2.244 2.199l-2.538.141-3.031 3.267s-8.207.956-10.429.422h-.767l.352 4.04-.099.126c-.485.625-2.672 3.71.816 4.49z" fill="#1448B6"/><path d="M180.769 350.771a.386.386 0 110-.772.386.386 0 010 .772zm9.833 4.265a.386.386 0 110-.772.386.386 0 010 .772zm5.063 1.539a.386.386 0 11-.001-.773.386.386 0 01.001.773zm-7.644-2.354a.386.386 0 110-.772.386.386 0 010 .772zm5.118 1.588a.386.386 0 11-.001-.773.386.386 0 01.001.773zm-7.728-2.796a.387.387 0 110-.775.387.387 0 010 .775zm-2.58-1.117a.387.387 0 110-.773.387.387 0 010 .773z" fill="#575988"/><path d="M166.607 360.538c3.903.864 17.581.801 17.581.801l7.637 1.216s13.144 1.257 14.607-2.811c1.462-4.068-1.147-3.829-1.147-3.829h-.098c-.837 1.082-2.518 2.318-5.823 2.375l-9.451.386-9.797-.703s-9.142-.281-10.668-.59a22.16 22.16 0 01-3.657-1.342c-.485.633-2.672 3.717.816 4.497z" fill="#DCE6F2"/><path opacity=".5" d="M191.123 361.634a6.166 6.166 0 001.547-.19l-.141-.379a7.597 7.597 0 01-3.896-.176c-.464-.119-.921-.253-1.406-.393a15.964 15.964 0 00-6.786-.766h-.303a64.277 64.277 0 01-12.553-.562 4.676 4.676 0 01-2.686-1.075l-.302.295a5.084 5.084 0 002.918 1.194c4.191.598 8.431.786 12.658.562h.296c1.386-.1 2.778-.06 4.156.12.844.159 1.677.367 2.496.625.464.141.929.281 1.407.401.847.223 1.719.338 2.595.344z" fill="#575988"/><path opacity=".1" d="M133.506 226.752l2.462 2.312 6.118-7.821a20.892 20.892 0 01-1.878-1.18l-6.702 6.689z" fill="#000"/><path d="M105.792 162.575l-4.81 6.689v7.026s-2.202 7.427 0 14.846l-.247 6.478s2.335 5.959 1.498 7.42c0 0 .422 4.391 6.069 7.427 5.647 3.035 12.033 10.188 12.033 10.188s2.405 4.602 8.889 3.555l6.174 2.614 7.11-9.092-9.62-5.228s-3.348-4.496-5.338-4.286l-8.158-9.492s-.211-3.028-2.299-3.028c0 0 3.868-3.134 2.51-5.017-1.357-1.883-.211-10.244-.211-10.244l-13.6-19.856z" fill="#67647E"/><path opacity=".1" d="M114.785 193.089s-10.984-.203-12.342 2.614c-1.357 2.818 8.995-4.181 12.342-2.614zm21.485 35.75c-.003.183.011.367.042.548a3.698 3.698 0 003.46 3.141h.197a3.692 3.692 0 003.692-3.689 3.755 3.755 0 00-.204-1.202c1.744-1.405 1.836-3.92 1.794-5.178a7.953 7.953 0 01-2.602-.92 17.267 17.267 0 01-1.822 3.716 3.695 3.695 0 00-4.275 2.171 3.685 3.685 0 00-.282 1.413z" fill="#000"/><path d="M142.318 220.724s2.476.555 2.476 1.004c0 .45.556 4.532-2.159 6.205-2.715 1.672-2.447-2.333-2.447-2.333s2.341-3.591 2.13-4.876z" fill="#575988"/><path d="M139.547 232.535a3.698 3.698 0 01-3.699-3.696 3.698 3.698 0 013.699-3.696 3.698 3.698 0 013.699 3.696 3.698 3.698 0 01-3.699 3.696z" fill="#E4AAB4"/><path d="M139.546 232.008a3.17 3.17 0 01-3.172-3.169 3.17 3.17 0 013.172-3.169 3.17 3.17 0 013.171 3.169 3.17 3.17 0 01-3.171 3.169z" fill="#DCE6F2"/><path opacity=".1" d="M153.949 230.265s-7.813 6.478-17.855 2.375v3.134s6.694 4.595 12.763 1.812c6.069-2.782 5.092-7.321 5.092-7.321z" fill="#000"/><path opacity=".1" d="M153.949 229.429s-7.834 6.478-17.855 2.354v3.134s6.694 4.595 12.763 1.812c6.069-2.782 5.092-7.3 5.092-7.3z" fill="#000"/><path d="M153.949 229.429s-7.834 6.478-17.855 2.354v3.134s6.694 4.595 12.763 1.812c6.069-2.782 5.092-7.3 5.092-7.3z" fill="#444053"/><path opacity=".05" d="M153.738 229.429s-7.813 6.478-17.855 2.375v3.134s6.716 4.574 12.764 1.813c6.048-2.762 5.091-7.322 5.091-7.322z" fill="#000"/><path opacity=".1" d="M178.464 345.832s-10.464 1.918-11.997 2.333c-1.533.414.422 1.152.422 1.152s9.585-1.707 11.575-3.485zm.275-5.537c-.169 0-7.11-1.953-8.608-5.297l8.608 5.297zm-10.121-40s-2.813 3.696-4.628 3.59c-1.814-.105 2.975-3.731 4.628-3.59zm-1.561 6.134s-1.182 2.614-2.926 1.778l2.926-1.778z" fill="#000"/><path opacity=".05" d="M160.467 249.046l-7.419 19.547s-1.048-12.577 1.167-16.343a6.538 6.538 0 016.252-3.204z" fill="#000"/><path opacity=".1" d="M142.206 94.16l.063-.28 1.195-.317-.133.583c-.375.03-.75.034-1.125.014zm3.277 4.701l-.127-.112a2.504 2.504 0 01-.716-1.172 2.5 2.5 0 01.013-1.372c.144-.346.344-.666.591-.948a9.175 9.175 0 001.723-.506c.07 1.047-1.111 1.721-1.477 2.705-.163.454-.166.95-.007 1.405zm-19.762 32.131a6.907 6.907 0 002.813-3.471c.598-1.405.956-2.881 1.561-4.265a13.113 13.113 0 012.813-4.068c.198-.232.452-.408.739-.513a2.012 2.012 0 011.526.421 7.005 7.005 0 002.32 1.019 2.507 2.507 0 002.328-.702c.647-.773.556-1.911.366-2.902-.408-2.164-1.083-4.293-1.09-6.492-.007-2.2.836-4.567 2.749-5.621 1.688-.963 3.784-.703 5.626-1.23a7.14 7.14 0 002.63-1.349l.148-.133c.156.064.309.136.457.217.303.162.626.45.542.78a.842.842 0 01-.31.394 7.24 7.24 0 01-2.63 1.342c-1.878.513-3.973.274-5.661 1.236-1.913 1.082-2.75 3.457-2.75 5.621 0 2.164.704 4.328 1.09 6.485.19.991.282 2.108-.365 2.902a2.471 2.471 0 01-2.328.703 7.025 7.025 0 01-2.321-1.012 2.032 2.032 0 00-1.526-.428 1.842 1.842 0 00-.703.512 13.25 13.25 0 00-2.813 4.069c-.605 1.405-.963 2.873-1.561 4.265a6.9 6.9 0 01-2.813 3.513c-1.329.702-3.172.702-4.22-.443a3.316 3.316 0 01-.625-1.047 3.587 3.587 0 004.008.197zm-6.006-5.305c-1.048-1.321-2.419-2.445-3.403-3.836a9.822 9.822 0 01-.542-.858c1.266 1.609 3.003 2.909 3.945 4.694z" fill="#000"/><g opacity=".1" fill="#000"><path opacity=".1" d="M181.776 105.944h166.386a8.722 8.722 0 016.142 2.549 8.711 8.711 0 012.557 6.135v105.035a8.713 8.713 0 01-8.699 8.684H217.641s-3.383 17.938 7.735 19.863c0 0-24.88 1.785-20.534-19.863h-23.059a8.706 8.706 0 01-8.693-8.684V114.628a8.705 8.705 0 012.55-6.132 8.715 8.715 0 016.136-2.552z"/><path opacity=".2" d="M201.571 133.824h126.808a3.985 3.985 0 013.988 3.984v.238a3.985 3.985 0 01-3.988 3.984H201.571a3.985 3.985 0 01-3.987-3.984v-.238a3.985 3.985 0 013.987-3.984zm23.566 36.676h103.242a3.986 3.986 0 013.988 3.984v.239c0 2.2-1.785 3.984-3.988 3.984H225.137a3.986 3.986 0 01-3.987-3.984v-.239c0-2.2 1.785-3.984 3.987-3.984zm31.153-18.338h72.089a3.986 3.986 0 013.988 3.984v.239c0 2.2-1.785 3.984-3.988 3.984H256.29a3.986 3.986 0 01-3.987-3.984v-.239c0-2.2 1.785-3.984 3.987-3.984z"/></g><path d="M179.603 104.489h166.386a8.727 8.727 0 018.699 8.691v105.035a8.707 8.707 0 01-2.557 6.135 8.722 8.722 0 01-6.142 2.549H215.468s-3.383 17.938 7.735 19.864c0 0-24.88 1.784-20.534-19.864H179.61a8.713 8.713 0 01-6.14-2.549 8.7 8.7 0 01-2.552-6.135V113.18a8.72 8.72 0 018.685-8.691z" fill="#fff"/><path opacity=".2" d="M199.398 132.369h126.808a3.986 3.986 0 013.988 3.984v.239c0 2.2-1.785 3.984-3.988 3.984H199.398a3.986 3.986 0 01-3.987-3.984v-.239c0-2.2 1.785-3.984 3.987-3.984zm23.566 36.684h103.242a3.986 3.986 0 013.988 3.984v.239c0 2.2-1.785 3.984-3.988 3.984H222.964a3.986 3.986 0 01-3.987-3.984v-.239c0-2.2 1.785-3.984 3.987-3.984zm31.153-18.338h72.089a3.985 3.985 0 013.988 3.983v.239a3.985 3.985 0 01-3.988 3.984h-72.089a3.985 3.985 0 01-3.987-3.984v-.239c0-2.2 1.785-3.983 3.987-3.983z" fill="#1448B6"/><path d="M702.945 447.824s-2.503 3.274 1.161 8.221c3.664 4.946 6.688 9.134 5.464 12.204 0 0-5.528-9.183-10.028-9.309-4.501-.127-1.547-5.593 3.403-11.116z" fill="#1448B6"/><path opacity=".1" d="M702.946 447.824a4.101 4.101 0 00-.506 1.026c-4.396 5.157-6.73 9.963-2.511 10.09 3.931.112 8.643 7.131 9.775 8.909 0 .133-.084.267-.134.4 0 0-5.527-9.183-10.028-9.309-4.5-.127-1.547-5.593 3.404-11.116z" fill="#000"/><path d="M698.291 451.998c0 1.152.127 2.108.288 2.108.162 0 .289-.935.289-2.108 0-1.174-.162-.611-.324-.611s-.253-.541-.253.611z" fill="#DCAF54"/><path d="M696.688 453.375c1.013.555 1.899.885 1.976.745.077-.141-.703-.703-1.695-1.251-.991-.548-.619-.147-.703 0-.084.148-.591-.042.422.506z" fill="#DCAF54"/><path d="M716.196 447.824s2.504 3.274-1.16 8.221c-3.664 4.946-6.688 9.134-5.464 12.204 0 0 5.527-9.183 10.028-9.309 4.5-.127 1.547-5.593-3.404-11.116z" fill="#1448B6"/><path opacity=".1" d="M716.196 447.824c.216.317.386.662.506 1.026 4.396 5.157 6.73 9.963 2.511 10.09-3.931.112-8.643 7.131-9.775 8.909.035.133.084.267.134.4 0 0 5.527-9.183 10.028-9.309 4.5-.127 1.547-5.593-3.404-11.116z" fill="#000"/><path d="M720.851 451.998c0 1.152-.127 2.108-.289 2.108-.161 0-.288-.935-.288-2.108 0-1.174.162-.611.323-.611.162 0 .254-.541.254.611z" fill="#DCAF54"/><path d="M722.454 453.375c-1.013.555-1.899.885-1.976.745-.078-.141.703-.703 1.695-1.251.991-.548.618-.147.703 0 .084.148.598-.042-.422.506z" fill="#DCAF54"/><path opacity=".1" d="M709.57 493.312c-14.479 0-26.217-1.799-26.217-4.019s11.738-4.019 26.217-4.019 26.217 1.799 26.217 4.019-11.738 4.019-26.217 4.019z" fill="#1448B6"/><path d="M696.047 463.837l.127 1.019.176 1.447.077.605.176 1.44.07.604.176 1.448 2.011 16.434c.176 1.468 2.574 2.614 5.471 2.614h10.45c2.898 0 5.289-1.146 5.472-2.614l2.011-16.427.176-1.448.07-.604.176-1.44.077-.605.176-1.447.127-1.019c.098-.829-1.203-1.531-2.813-1.531h-21.316c-1.659-.007-2.96.695-2.89 1.524z" fill="#65617D"/><path d="M696.208 464.856l.176 1.447h26.378l.176-1.447h-26.73zm.248 2.052l.176 1.44h25.879l.183-1.44h-26.238zm.253 2.044l.176 1.448h25.38l.175-1.448h-25.731z" fill="#9D9CB5"/><g opacity=".1" fill="#000"><path opacity=".1" d="M237.403 316.35h180.303a9.457 9.457 0 016.655 2.766 9.434 9.434 0 012.768 6.649V439.59a9.436 9.436 0 01-2.768 6.649 9.457 9.457 0 01-6.655 2.766H276.264s-3.664 19.434 8.375 21.521c0 0-26.955 1.932-22.243-21.521h-24.993a9.444 9.444 0 01-9.424-9.415V325.765a9.443 9.443 0 012.768-6.649 9.461 9.461 0 016.656-2.766z"/><path opacity=".2" d="M258.515 386.317h138.087a3.986 3.986 0 013.988 3.984v.927c0 2.2-1.785 3.984-3.988 3.984H258.515a3.986 3.986 0 01-3.988-3.984v-.927c0-2.2 1.785-3.984 3.988-3.984zm82.728-19.877h55.359a3.985 3.985 0 013.988 3.984v.927c0 2.2-1.785 3.984-3.988 3.984h-55.359a3.986 3.986 0 01-3.987-3.984v-.927a3.985 3.985 0 013.987-3.984z"/></g><path d="M238.942 314.783H419.28a9.457 9.457 0 016.655 2.766 9.441 9.441 0 012.769 6.649v113.825a9.441 9.441 0 01-2.769 6.649 9.457 9.457 0 01-6.655 2.766H277.838s-3.664 19.434 8.375 21.528c0 0-26.962 1.932-22.25-21.528h-25.021a9.444 9.444 0 01-9.424-9.415V324.198a9.444 9.444 0 019.424-9.415z" fill="#fff"/><path opacity=".2" d="M260.082 384.75H398.17a3.986 3.986 0 013.987 3.984v.928c0 2.2-1.785 3.983-3.987 3.983H260.082a3.985 3.985 0 01-3.987-3.983v-.928c0-2.2 1.785-3.984 3.987-3.984zm82.729-19.877h55.359a3.986 3.986 0 013.987 3.984v.927a3.985 3.985 0 01-3.987 3.984h-55.359a3.985 3.985 0 01-3.987-3.984v-.927c0-2.2 1.785-3.984 3.987-3.984z" fill="#1448B6"/><path d="M79.707 329.482c0 .605-.07 1.096-.155 1.096a2.219 2.219 0 01-.148-1.096c0-.597.085-.316.169-.316s.134-.281.134.316z" fill="#DCAF54"/><path d="M80.545 330.206c-.534.288-.991.464-1.034.386-.042-.077.36-.365.886-.653.528-.288.324-.077.366 0 .042.077.31-.021-.218.267z" fill="#DCAF54"/></g><defs><linearGradient id="paint0_linear" x1="170.912" y1="369.44" x2="170.912" y2="90.479" gradientUnits="userSpaceOnUse"><stop stop-color="gray" stop-opacity=".25"/><stop offset=".54" stop-color="gray" stop-opacity=".12"/><stop offset="1" stop-color="gray" stop-opacity=".1"/></linearGradient><clipPath id="clip0"><path fill="#fff" transform="matrix(-1 0 0 1 758 0)" d="M0 0h758v578H0z"/></clipPath></defs></svg>