<svg width="482" height="472" fill="none" xmlns="http://www.w3.org/2000/svg"><path opacity=".7" d="M374.513 21.259S386 1.867 389.998.777c0 0-12.741 4.16-16.083 19.778l.598.704z" fill="#DCAF54"/><path opacity=".1" d="M1.716 193.895c.016-.22.053-.439.108-.653.91 1.414 2.04 2.785 2.158 4.447a4.05 4.05 0 01-.088 1.146c-1.012-1.591-2.309-3.087-2.178-4.94z" fill="#000"/><path d="M384.646 263.077s-6.182-4.374-12.536-1.612c0 0 1.804 3.777 9.74 3.682l2.796-2.07zm.767.25s1.687 7.381-3.295 12.207c0 0-2.796-3.112.319-10.408l2.976-1.799zm8.099-6.773s-.262-6.238-14.381-4.629c0 0-.196 4.014 4.672 6.075 4.868 2.061 7.186.545 9.709-1.446zm.872-.018s5.884 2.102.155 15.113c0 0-3.889-1.004-4.412-6.267-.524-5.262 1.615-7.014 4.257-8.846zm8.241-8.566s1.128-10.218-13.259-9.634c0 0-1.317 9.239 10.644 12.012l2.615-2.378zm9.868-11.255s-1.594-11.668-16.08-8.68c0 0-.38 10.035 13.626 11.372l2.454-2.692zm7.323-11.73s-2.929-11.435-17.266-8.489c0 0 3.029 10.282 16.251 10.549l1.015-2.06zm6.966-11.457s-2.842-11.856-16.674-8.759c0 0 4.222 11.296 15.718 10.73l.956-1.971zm4.607-10.95s-2.014-14.432-14.909-11.672c0 0 3.295 13.177 13.912 13.726l.997-2.054zm4.416-13.27s-2.501-14.56-15.587-10.773c0 0 4.641 13.835 14.62 12.743l.967-1.97zm2.873-12.372s-4.242-14.614-14.286-14.549c0 0 4.335 15.409 13.353 17.422l.933-2.873zm1.958-12.133s-4.574-17.581-12.772-16.5c0 0 3.124 13.422 12.396 19.203l.376-2.703zm1.358-14.505s-4.342-14.662-12.373-15.505c0 0 2.815 14.38 12.075 19.27l.298-3.765zm1.415-13.495s-5.536-14.719-10.846-15.222c0 0 2.144 14.383 10.237 17.589l.609-2.367zm1.074-12.579s-3.181-15.897-8.449-17.374c0 0 .307 12.922 7.88 18.535l.569-1.161zm2.533-16.423s-3.477-12.696-7.715-14.755c0 0 .372 14.839 6.634 17.771l1.081-3.016zm2.012-10.781l1.503-22.14s-8.57 16.47-2.222 26.032l.719-3.892zm6.939-21.83s6.312-15.999 7.731-16.856c0 0-11.694 10.16-11.021 23.68l3.29-6.823zm-52.948 172.717s10.235-1.004 9.458 13.379c0 0-9.253 1.2-11.871-10.8l2.413-2.579zm9.963-11.562s11.768.341 10.335 15.042c0 0-9.936 1.448-12.753-12.338l2.418-2.704zm6.914-10.401s10.849-4.664 17.266 8.489c0 0-10.004 3.852-18.274-6.423l1.008-2.066zm7.124-12.301s11.107-4.98 17.125 7.866c0 0-11.525 3.553-18.093-5.901l.968-1.965z" fill="#DCAF54"/><path d="M431.241 202.881s10.854-9.716 18.924.732c0 0-11.025 7.925-19.481 1.492l.557-2.224zm3.982-13.939s10.924-9.943 18.914 1.076c0 0-12.164 8.056-19.364 1.058l.45-2.134zm2.383-12.468s8.576-12.577 18.093-9.403c0 0-8.91 13.326-18.099 12.425l.006-3.022zm2.787-11.758s8.758-15.914 16.434-12.854c0 0-6.328 12.242-16.727 15.563l.293-2.709zm1.068-15.263s8.867-12.46 16.732-10.648c0 0-7.328 12.688-17.672 14.31l.94-3.662zm1.062-12.966s7.012-14.075 12.343-14.03c0 0-3.604 14.091-11.978 16.444l-.365-2.414zm1.707-12.584s7.753-14.234 13.227-14.088c0 0-4.131 12.254-13.023 15.369l-.204-1.281zm1.59-15.277s5.837-11.8 10.389-13.009c0 0-3.197 14.504-9.89 16.206l-.499-3.197z" fill="#DCAF54"/><path d="M449.692 96.624l12.769-18.145s-3.71 18.199-14.66 21.623l1.891-3.478zm9.006-19.851s14.436-9.303 15.021-10.868c0 0-7.639 13.449-21.079 15.427l6.058-4.559zm.992-4.363s16.747-15.087 20.891-14.933c0 0-13.415.174-21.288 14.093l.397.84z" fill="#DCAF54"/><path d="M445.907 111l.595.097c3.825-23.797 8.735-37.77 13.819-39.355l-.175-.593c-5.381 1.67-10.322 15.442-14.239 39.851z" fill="#444053"/><path d="M439.562 167.955l.891.102c.26-2.222.484-4.503.655-6.772 1.493-19.747 3.405-37.864 5.581-51.424l-.497-.656c-2.182 13.584-4.482 32.237-5.981 52.014-.17 2.257-.389 4.52-.649 6.736z" fill="#444053"/><path d="M367.594 273.909c.16-.066 16.126-6.583 33.008-22.818a129.767 129.767 0 0024.646-32.617c8.05-15.131 13.265-33.885 15.407-52.194l-.947.41c-4.805 41.096-24.482 68.661-39.877 83.504-16.717 16.09-32.517 22.541-32.665 22.601l.428 1.114z" fill="#444053"/><path opacity=".7" d="M359.587 225.612s-7.203-2.338-12.451 2.19c0 0 2.851 3.075 10.397.621l2.054-2.811zm.805.006s3.8 6.552.489 12.632c0 0-3.571-2.136-2.797-10.031l2.308-2.601zm5.726-8.87s-2.115-5.882-15.107-.15c0 0 1.005 3.899 6.273 4.417 5.267.518 7.011-1.625 8.834-4.267zm.823-.276s6.229.263 4.647 14.385c0 0-4.015.2-6.08-4.675-2.066-4.876-.544-7.182 1.433-9.71zm5.316-10.645s-1.958-10.088-15.518-5.262c0 0 1.489 9.217 13.733 8.313l1.785-3.051zm6.069-13.69s-4.994-10.666-17.911-3.514c0 0 2.626 9.699 16.394 6.814l1.517-3.3zm3.508-13.348s-6.207-10.067-19.012-2.98c0 0 5.992 8.916 18.653 5.246l.359-2.266zm3.241-13.013s-6.239-10.471-18.533-3.411c0 0 7.39 9.538 18.191 5.582l.342-2.171zm1.143-11.826s-6.221-13.189-17.717-6.711c0 0 7.071 11.604 17.363 8.976l.354-2.265zm.262-13.98s-6.725-13.17-18.078-5.659c0 0 8.544 11.835 17.742 7.829l.336-2.17zm-.948-12.681s-8.389-12.701-17.96-9.655c0 0 8.732 13.454 17.932 12.679l.028-3.024zm-1.758-12.153s-9.593-15.432-17.101-11.964c0 0 6.983 11.894 17.546 14.658l-.445-2.694zm-2.986-14.249s-8.519-12.717-16.425-11.136c0 0 6.965 12.904 17.256 14.82l-.831-3.684zm-2.672-13.311s-9.663-12.42-14.878-11.31c0 0 6.332 13.103 15.006 13.75l-.128-2.44zm-2.713-12.326s-7.769-14.21-13.239-14.085c0 0 4.149 12.252 13.039 15.37l.2-1.285zm-2.467-16.437S365.835 47.723 361.179 47c0 0 4.777 14.072 11.618 15.026l.139-3.213zM371.65 47.92l-5.155-21.594s-3.267 18.273 5.63 25.498l-.475-3.904zm.118-22.899s1.259-17.152 2.353-18.417c0 0-8.125 13.153-3.46 25.892l1.107-7.475zm.85 180.633s9.469-3.995 13.006 9.98c0 0-8.467 3.895-14.541-6.794l1.535-3.186zm6.074-14.005s11.332-3.168 14.344 11.303c0 0-9.052 4.337-15.848-7.998l1.504-3.305zm3.505-11.981s8.961-7.684 19.012 2.98c0 0-8.397 6.659-19.359-.714l.347-2.266zm3.137-13.863s9.125-8.059 18.688 2.424c0 0-9.94 6.828-19.024-.253l.336-2.171z" fill="#DCAF54"/><path opacity=".7" d="M386.163 154.281s7.47-12.517 18.284-4.935c0 0-8.162 10.856-18.15 7.227l-.134-2.292zm-.346-14.494s7.468-12.748 18.37-4.585c0 0-9.211 11.337-18.16 6.77l-.21-2.185zm-1.424-12.617s4.434-14.556 14.457-14.331c0 0-4.53 15.382-13.567 17.248l-.89-2.917zm-.835-12.052s3.612-17.803 11.843-17.159c0 0-2.393 13.575-11.322 19.84l-.521-2.681zm-3.532-14.885s4.749-14.54 12.795-15.147c0 0-3.213 14.299-12.599 18.922l-.196-3.775zm-2.839-12.698s2.498-15.522 7.6-17.064c0 0 .751 14.525-6.531 19.267l-1.069-2.203zm-2.111-12.519s3.155-15.9 8.418-17.384c0 0-.292 12.928-7.847 18.544l-.571-1.16zm-3.02-15.038s2.051-13.002 6.03-15.512c0 0 1.28 14.801-4.625 18.431l-1.405-2.92z" fill="#DCAF54"/><path opacity=".7" d="M372.173 47.32l6.776-21.125s1.896 18.478-7.546 25.007l.77-3.881zm2.687-21.605s11.028-13.19 11.101-14.847c0 0-3.303 15.119-15.511 20.999l4.41-6.152z" fill="#DCAF54"/><path opacity=".7" d="M372.831 62.158l.591-.086c-3.421-23.853-2.906-38.661 1.461-41.683l-.34-.49c-4.632 3.212-5.219 17.825-1.712 42.259z" fill="#444053"/><path opacity=".7" d="M383.72 118.494l.882-.165c-.417-2.2-.881-4.442-1.393-6.665-4.452-19.3-8.019-37.163-9.971-50.76l-.672-.483c1.958 13.644 5.315 32.12 9.768 51.449.511 2.177.975 4.406 1.386 6.624z" fill="#444053"/><path opacity=".7" d="M346.581 241.027c.13-.107 13.41-11.074 24.697-31.601a129.75 129.75 0 0013.781-38.471c3.17-16.844 2.566-36.303-.845-54.423l-.778.67c7.639 40.676-2.915 72.854-13.194 91.606-11.133 20.33-24.272 31.183-24.408 31.291l.747.928z" fill="#444053"/><path opacity=".1" d="M114.026 414.971l59.681 22.688 87.234 33.128c3.246-6.115 8.041-14.484 13.979-24.421 20.409-34.284 54.206-87.619 84.289-134.491 33.907-52.814 63.089-97.413 63.089-97.413l-21.353-6.054-174.417-49.476-112.502 256.039z" fill="#000"/><path d="M112.814 410.823l59.681 22.688 87.234 33.129c3.247-6.116 8.042-14.485 13.979-24.422 20.41-34.284 54.206-87.619 84.289-134.491 33.907-52.814 63.089-97.413 63.089-97.413l-21.353-6.054-174.417-49.475-112.502 256.038z" fill="#fff"/><path opacity=".1" d="M112.813 410.823l59.682 22.688a447.823 447.823 0 00101.213 8.708c20.409-34.284 54.206-87.62 84.289-134.492l41.736-103.467-174.417-49.475-112.503 256.038z" fill="#000"/><path d="M68.43 396.754s92.83 54.176 230.869 41.016l108.537-269.075-52.82-8.754-182.591-30.253-101.96 261.866-2.036 5.2z" fill="#1448B6"/><path opacity=".1" d="M70.465 391.553c21.792.941 46.985.691 72.327-2.479 27.418-3.379 54.946-10.201 78.56-22.534 19.719-10.308 36.566-21.479 51.239-34.857 38.151-34.726 61.599-84.219 82.402-171.743l-182.591-30.252L70.465 391.553z" fill="#000"/><path d="M2.519 376.946s68.297 12.967 137.619 4.325c27.418-3.396 54.976-10.201 78.56-22.533 19.719-10.309 36.566-21.479 51.24-34.857 47.238-43.02 71.909-108.596 96.978-240.94 0 0-113.22 28.026-225.594-31.246 0 0-36.397 236.048-138.803 325.251z" fill="#fff"/><path opacity=".1" d="M140.137 381.272c27.418-3.397 54.976-10.201 78.56-22.533 19.72-10.309 36.567-21.48 51.24-34.857-40.439-3.045-46.38-25.112-46.38-25.112-29.686 47.737-83.42 82.502-83.42 82.502z" fill="#000"/><path opacity=".3" d="M308.571 131.82s-60.864 7.309-118.057-24.387l-3.833 12.566s54.696 26.873 121.977 26.477l-.087-14.656z" fill="#DCAF54"/><path opacity=".3" d="M308.934 193.728s-60.578-4.529-128.175-36.71l-2.248 5.225s24.99 31.072 130.465 38.609l-.042-7.124zm-7.036 24.191s-60.577-4.529-128.174-36.705l-2.249 5.226s24.985 31.102 130.466 38.644l-.043-7.165zm-6.412 26.069s-60.577-4.53-128.174-36.705l-2.249 5.225s25.021 31.084 130.466 38.644l-.043-7.164zm-7.664 22.353s-60.577-4.529-128.174-36.704l-2.249 5.225s24.985 31.09 130.465 38.65l-.042-7.171z" fill="#000"/><path opacity=".1" d="M280.784 290.555s-60.578-4.529-128.175-36.704l-2.248 5.225s24.99 31.09 130.465 38.644l-.042-7.165z" fill="#000"/><path opacity=".3" d="M153.719 140.92l16.977 5.668-5.668 16.977-16.977-5.668 5.668-16.977zm-9.488 25.263l16.977 5.668-5.668 16.977-16.977-5.668 5.668-16.977zm-15.167 48.589l16.977 5.668-5.668 16.977-16.977-5.668 5.668-16.977zm-8.715 26.081l16.977 5.668-5.669 16.977-16.976-5.668 5.668-16.977zm16.176-48.44l16.977 5.669-5.668 16.976-16.977-5.668 5.668-16.977z" fill="#DCAF54"/><path d="M118.342 245.51l-47.593-17.458a4.51 4.51 0 00-4.878 1.177 4.52 4.52 0 00.264 6.383c.437.402.948.714 1.505.918l47.594 17.464 10.169-1.081-7.061-7.403z" fill="#5C5C8E"/><path opacity=".1" d="M66.388 229.3a4.523 4.523 0 002.687 5.802l47.594 17.458 7.641-.811 1.105 1.181-10.168 1.081-47.594-17.464a4.512 4.512 0 01-2.544-2.341 4.524 4.524 0 01-.144-3.455 4.503 4.503 0 011.833-2.267 4.83 4.83 0 00-.41.816z" fill="#fff"/><path d="M118.341 245.51l-3.115 8.484 8.348-.886 1.827-.195-2.515-2.633-4.545-4.77z" fill="#EFC8C4"/><path d="M122.895 250.28c-.196.144-.36.327-.484.537a.765.765 0 00.005.825c.138.131.295.24.465.324a1.51 1.51 0 01.684 1.142l1.827-.195-2.497-2.633z" fill="#727A9C"/><path d="M159.255 153.547l7.985-3.954a.962.962 0 00.438-1.296l-.859-1.741a.962.962 0 00-1.297-.437l-5.38 2.661-5.702-11.519a.971.971 0 00-1.297-.443l-1.74.865a.97.97 0 00-.538.932.97.97 0 00.1.365l6.994 14.129a.956.956 0 00.932.536.98.98 0 00.364-.098zm-17.198 50.068l7.985-3.954a.958.958 0 00.487-.557.975.975 0 00-.05-.739l-.859-1.741a.974.974 0 00-1.302-.437l-5.375 2.661-5.696-11.531a.975.975 0 00-1.297-.443l-1.734.865a.978.978 0 00-.491.556.976.976 0 00.048.741l6.993 14.129a.982.982 0 001.302.438l-.011.012zm7.706-24.677l7.985-3.953a.973.973 0 00.444-1.296l-.865-1.741a.962.962 0 00-1.297-.437l-5.381 2.661-5.701-11.536a.98.98 0 00-.558-.488.95.95 0 00-.374-.048.949.949 0 00-.365.098l-1.74.859a.98.98 0 00-.438 1.303l6.999 14.141a.976.976 0 00.933.536.968.968 0 00.364-.099h-.006zm-15.173 47.278l7.985-3.953a.977.977 0 00.3-.23.984.984 0 00.236-.702.967.967 0 00-.098-.365l-.859-1.74a.976.976 0 00-.932-.536.968.968 0 00-.365.099l-5.381 2.661-5.701-11.519a.982.982 0 00-1.303-.443l-1.734.865a.948.948 0 00-.49.557.972.972 0 00.052.739l6.988 14.13a.98.98 0 001.302.437zm300.287 151.606s-3.505 4.639 1.695 11.578c5.199 6.939 9.496 12.802 7.818 17.169 0 0-7.865-12.901-14.199-13.041-6.335-.141-2.237-7.877 4.686-15.706z" fill="#1448B6"/><path opacity=".1" d="M434.877 377.823a5.724 5.724 0 00-.716 1.452c-6.136 7.302-9.415 14.101-3.448 14.268 5.54.121 12.24 9.984 13.84 12.473a4.537 4.537 0 01-.181.595s-7.864-12.901-14.199-13.042c-6.335-.14-2.219-7.917 4.704-15.746z" fill="#000"/><path d="M428.346 383.75c.009 1.62.201 2.967.427 2.965.225-.001.396-1.32.386-2.97-.01-1.65-.231-.86-.456-.858-.226.001-.367-.764-.357.863z" fill="#FFD037"/><path d="M426.108 385.698c1.429.77 2.679 1.237 2.784 1.035.106-.203-.967-.98-2.385-1.767-1.417-.787-.862-.209-.967.006-.106.214-.867-.043.568.726z" fill="#FFD037"/><path d="M453.529 377.713s3.553 4.597-1.565 11.596c-5.117 7-9.339 12.913-7.615 17.26 0 0 7.706-12.992 14.044-13.207 6.339-.216 2.15-7.902-4.864-15.649z" fill="#1448B6"/><path opacity=".1" d="M453.529 377.713c.308.445.553.931.727 1.444 6.228 7.229 9.58 13.989 3.615 14.226-5.531.187-12.115 10.127-13.692 12.635.051.202.116.4.194.593 0 0 7.706-13.046 14.056-13.261 6.351-.216 2.115-7.89-4.9-15.637z" fill="#000"/><path d="M460.122 383.563c.01 1.621-.16 2.969-.386 2.971-.225.001-.417-1.316-.427-2.966-.01-1.65.221-.862.446-.863.226-.002.358-.768.367.858z" fill="#FFD037"/><path d="M462.39 385.485c-1.426.786-2.664 1.268-2.772 1.067-.108-.201.956-.991 2.364-1.795 1.408-.804.866-.219.974-.006.108.214.854-.052-.566.734z" fill="#FFD037"/><path opacity=".1" d="M444.572 441.879c-20.389.12-36.932-2.319-36.95-5.446-.019-3.128 16.495-5.761 36.883-5.88 20.389-.12 36.932 2.318 36.951 5.445.018 3.128-16.495 5.761-36.884 5.881z" fill="#DCAF54"/><path d="M425.333 400.448l.187 1.442.255 2.034.112.849.255 2.034.118.848.255 2.035 2.962 23.134c.267 2.064 3.655 3.659 7.739 3.635l14.668-.086c4.078-.024 7.44-1.658 7.695-3.726l2.689-23.167.238-2.038.096-.849.243-2.038.096-.849.237-2.038.17-1.443c.129-1.188-1.699-2.151-4.008-2.137l-30.031.176c-2.315.014-4.131 1.016-3.976 2.184z" fill="#fff"/><path d="M425.515 401.89l.261 2.034 37.154-.218.231-2.038-37.646.222zm.367 2.883l.262 2.035 36.447-.214.238-2.038-36.947.217zm.372 2.883l.262 2.035 35.741-.211.237-2.037-36.24.213z" fill="#9D9CB5"/></svg>