<svg width="27" height="27" fill="none" xmlns="http://www.w3.org/2000/svg"><path d="M13.012 2.1c-3.456.021-3.625-.04-4.99.03-.82.015-2.219.726-2.987 1.016-.557.218-.571.578-.992 1.003-.42.426-.78.444-.992 1.004-.28.771-.975 2.179-.98 3-.054 1.364.01 1.531.03 4.988.02 3.457-.042 3.625.029 4.99.014.82.726 2.219 1.015 2.987.219.557.578.571 1.004.992.426.42.444.78 1.004.992.771.28 2.178.975 2.999.98 1.365.054 1.533-.01 4.99-.03 3.455-.02 3.624.042 4.988-.029.821-.014 2.22-.726 2.988-1.015.557-.219.571-.578.992-1.004.42-.426.78-.444.992-1.004.28-.77.975-2.178.98-2.999.055-1.365-.009-1.533-.029-4.989-.02-3.456.041-3.625-.03-4.989-.014-.82-.725-2.22-1.015-2.987-.218-.558-.578-.572-1.003-.992-.426-.421-.445-.78-1.004-.992-.772-.28-2.179-.976-3-.98-1.364-.055-1.533.008-4.989.029zM13 .106c3.516-.02 3.608-.084 4.99-.03 1.073.016 2.99.604 3.997.975.862.328 1.346.338 2.001.986.656.648.672 1.132 1.01 1.99.383 1.004.993 2.912 1.021 3.985.071 1.38.009 1.473.03 4.99.02 3.516.083 3.607.029 4.989-.015 1.073-.604 2.989-.974 3.997-.328.861-.338 1.345-.986 2.001-.649.656-1.132.672-1.99 1.01-1.004.382-2.912.993-3.986 1.02-1.38.072-1.474.01-4.989.03-3.515.02-3.608.084-4.99.03-1.073-.016-2.988-.604-3.997-.975-.861-.327-1.345-.338-2.001-.986-.656-.648-.672-1.132-1.01-1.99-.382-1.003-.993-2.911-1.02-3.985-.072-1.38-.01-1.473-.03-4.989C.084 9.637.02 9.545.075 8.163.091 7.09.68 5.175 1.05 4.168c.327-.862.338-1.346.986-2.002.648-.655 1.132-.672 1.99-1.01C5.029.774 6.937.163 8.01.136 9.39.063 9.483.126 13 .106z" fill="#fff"/><path fill-rule="evenodd" clip-rule="evenodd" d="M10 9c.367-.18 1.232-.007 2 0 .596.005.767-.057 1 0 .543.131 1.037.095 1 1-.011.272 0 .635 0 1 0 .08.002-.088 0 0-.012.463-.305 1.8 0 2 .155.101.044-.375 1-2 .454-.773 1-2 1-2 .042-.092-.081.06 0 0 .118-.07 1 0 1 0h2s.895-.29 1 0c.11.31-1.122.828-2 2-.835 1.112-1.038 1.638-1 2 .028.264.493.532 1 1 1.058.984.935 1.88 1 2 .005.01.997-.005 1 0 .474.788-1 1-1 1h-2s-.456-.629-1-1c-.283-.194-.737.302-1 0-.4-.46-.682-1.1-1-1-.531.171 0 1 0 1s.123.87 0 1c-.13.139-1 0-1 0h-1s-1.338-.268-3-2c-1.813-1.887-4-6-4-6s-.102.122 0 0c.11-.13 1 0 1 0h2s-.14-.101 0 0c.113.082 0 0 0 0s.563 1.241 1 2c.857 1.474 1.71 2.159 2 2 .421-.233 0-3 0-3s.22-.702 0-1c-.172-.233-.857.02-1 0-.246.12-.114-.013 0 0z" fill="#fff"/></svg>