<svg width="30" height="30" fill="none" xmlns="http://www.w3.org/2000/svg"><path d="M15.01 2.014C8.37 2.326 3.005 7.406 3.025 13.995c.003 1.94.11 4.266.999 5.991l-.999 5.99c-.016.08-.024.922 0 1 .024.077-.059-.057 0 0 .059.056-.079-.022 0 0 .079.02.92.018.999 0l5.992-1c1.668.823 3.134.974 4.994 1 6.787.103 12.772-5.258 12.984-11.982.227-7.211-5.687-13.325-12.984-12.98zM22 20.984a8.74 8.74 0 01-2.996 1.997c-1.185.487-1.715 1.003-2.996.999-1.507.004-3.644-.33-4.994-.999h-.999l-3.995.999.999-3.994v-.998c-.702-1.358-1.003-3.465-.999-4.993 0-2.584 1.153-4.164 2.996-5.99 1.838-1.816 4.406-2.995 6.992-2.996 2.608 0 4.149 1.168 5.992 2.996.908.893 2.505 1.82 2.996 2.995.491 1.175.003 1.722 0 2.995 0 2.563-1.167 5.178-2.996 6.99z" fill="#fff"/><path d="M20.969 17.92l-1.99-.987c-.154-.043-.839-.04-.994 0-.156.04.113-.112 0 0l-.995.988c-.121.12.169-.035 0 0-.168.034-.835.063-.995 0-1.13-.448-3.37-2.915-3.979-3.95-.085-.147-.012.168 0 0 .013-.169-.105-.855 0-.988h.995c.098-.124-.02-.832 0-.988.02-.156.065.144 0 0l-.995-1.975c-.057-.124.107-.9 0-.987-.107-.087-.86.03-.995 0s.135-.032 0 0c-.134.032.106-.088 0 0-.667.552-1.894 2.032-1.989 2.962-.17 1.639.266 3.444 2.984 5.926 3.14 2.865 6.322 3.351 7.958 2.962.93-.22 1.523-1.254 1.99-1.975.075-.114-.014.136 0 0 .014-.135.049-.86 0-.987-.05-.127.102.091 0 0-.102-.092-.862.036-.995 0z" fill="#fff"/></svg>