<svg width="260" height="186" fill="none" xmlns="http://www.w3.org/2000/svg"><g clip-path="url(#clip0)"><path d="M248.068 185.616c4.082 0 7.391-.688 7.391-1.536 0-.848-3.309-1.535-7.391-1.535s-7.391.687-7.391 1.535c0 .848 3.309 1.536 7.391 1.536zm8.623-148.2h-.616v16.126h.616V37.416z" fill="#DCAF54"/><path d="M249.916 27.05h-3.696V186h3.696V27.05z" fill="#DCAF54"/><path d="M264.986 39.528H231.15a2.19 2.19 0 01-1.076-.289 2.753 2.753 0 01-.886-.815 3.552 3.552 0 01-.539-1.197 4.049 4.049 0 01-.096-1.367l4.311-43.001c.08-.79.388-1.515.866-2.04.478-.527 1.094-.818 1.732-.819h25.213c.638.001 1.253.292 1.731.818.478.526.786 1.252.866 2.04l4.311 43.002c.046.459.014.925-.096 1.367-.109.442-.293.85-.539 1.197a2.733 2.733 0 01-.886.815 2.19 2.19 0 01-1.076.289zm-8.604 16.702c1.191 0 2.156-1.204 2.156-2.688 0-1.485-.965-2.688-2.156-2.688-1.19 0-2.155 1.203-2.155 2.688 0 1.484.965 2.687 2.155 2.687zM29.666 143.331c-1.556 6.729-6.099 11.439-10.837 15.441-.662.558-1.324 1.104-1.986 1.638l-.014.01a3.646 3.646 0 00-.093.076l-.409.329.075.041s.073.049-.007.008c-.024-.012-.049-.023-.073-.036-2.752-1.384-5.554-2.87-7.664-5.463-2.188-2.693-3.467-6.917-2.282-10.454a7.355 7.355 0 01.894-1.81c.653-.994 1.508-1.754 2.475-2.2a4.73 4.73 0 013.028-.34c1.016.224 1.965.781 2.75 1.614.786.833 1.38 1.912 1.72 3.126.348-4.041-2.325-7.426-4.897-9.924-2.573-2.496-5.497-5.215-5.995-9.234-.277-2.236.346-4.403 1.482-6.142a4.33 4.33 0 01.107-.157c1.383-2.026 3.328-3.327 5.446-3.643 3.946-.512 7.779 2.092 10.646 5.513 4.613 5.503 7.402 13.956 5.634 21.607z" fill="#DCAF54"/><path d="M22.25 134.529a20.354 20.354 0 011.725 4.746c.327 1.5.473 3.052.432 4.606-.105 3.197-.825 6.316-2.099 9.093a29.165 29.165 0 01-3.48 5.798c-.66.558-1.323 1.104-1.985 1.637l-.014.011a3.646 3.646 0 00-.093.076l-.409.329s.148.09.068.049c-.024-.012-.049-.023-.073-.036a19.575 19.575 0 00-.704-7.462c-.71-2.382-1.868-4.517-3.376-6.226-1.511-1.683-3.32-2.896-5.28-3.542.097-.171.2-.336.308-.497.757.265 1.493.612 2.2 1.039 2.53 1.514 4.601 4.004 5.908 7.1 1.172 2.811 1.676 5.982 1.454 9.138.113-.128.226-.258.336-.388 2.092-2.431 3.95-5.222 5.207-8.443 1.091-2.728 1.627-5.748 1.562-8.795-.103-3.322-1.165-6.4-2.702-9.079-1.685-2.858-3.675-5.415-5.916-7.601-2.258-2.255-4.729-4.157-7.357-5.663a.301.301 0 01-.13-.172.391.391 0 01.001-.236.263.263 0 01.107-.157.152.152 0 01.083-.019.162.162 0 01.08.027c.325.187.648.376.967.572 2.663 1.641 5.152 3.688 7.41 6.095 2.181 2.318 4.235 4.967 5.77 8z" fill="#DCAF54"/><path d="M7.206 160.276h17.049c.187 0 .372.05.542.146a1.4 1.4 0 01.447.41c.123.175.216.381.27.604.056.222.073.457.05.689l-2.173 21.667c-.04.397-.195.763-.436 1.028s-.551.412-.873.412H9.378c-.321 0-.632-.147-.872-.412a1.803 1.803 0 01-.437-1.028l-2.172-21.667a2.03 2.03 0 01.048-.689c.056-.223.148-.429.272-.604.124-.174.276-.314.446-.41.17-.096.356-.146.543-.146z" fill="#DCAF54"/><path d="M62.794 185.399c1.178 0 2.133-1.191 2.133-2.661 0-1.469-.955-2.66-2.133-2.66-1.179 0-2.134 1.191-2.134 2.66 0 1.47.955 2.661 2.134 2.661zm134.778 0c1.178 0 2.133-1.191 2.133-2.661 0-1.469-.955-2.66-2.133-2.66-1.179 0-2.134 1.191-2.134 2.66 0 1.47.955 2.661 2.134 2.661z" fill="#1448B6"/><path d="M101.912 145.717H68.484c-1.555-.002-3.047-.773-4.147-2.145-1.1-1.371-1.719-3.231-1.72-5.17v-28.376c.002-1.939.62-3.799 1.72-5.17s2.592-2.143 4.147-2.145h33.428c1.556.002 3.047.774 4.147 2.145s1.719 3.231 1.721 5.17v28.376c-.002 1.939-.621 3.799-1.721 5.17-1.1 1.372-2.591 2.143-4.147 2.145z" fill="#B4CCFF"/><path d="M146.896 145.939h-33.427c-1.556-.002-3.047-.774-4.147-2.145s-1.719-3.231-1.721-5.17v-28.376c.002-1.939.621-3.799 1.721-5.17 1.1-1.372 2.591-2.143 4.147-2.145h33.427c1.556.002 3.047.773 4.147 2.145 1.1 1.371 1.719 3.231 1.721 5.17v28.376c-.002 1.939-.621 3.799-1.721 5.17s-2.591 2.143-4.147 2.145z" fill="#B4CCFF"/><path d="M191.882 146.161h-33.428c-1.556-.002-3.047-.774-4.147-2.145-1.1-1.372-1.719-3.231-1.721-5.171V110.47c.002-1.94.621-3.799 1.721-5.17 1.1-1.372 2.591-2.143 4.147-2.146h33.428c1.555.003 3.047.774 4.147 2.146 1.1 1.371 1.719 3.23 1.72 5.17v28.375c-.001 1.94-.62 3.799-1.72 5.171-1.1 1.371-2.592 2.143-4.147 2.145z" fill="#B4CCFF"/><path d="M204.683 144.166H57.459v38.351h147.224v-38.351z" fill="#B4CCFF"/><path d="M62.794 182.738h-6.4c-3.236 0-5.868-3.726-5.868-8.306v-40.02h12.268v48.326zm141.178.001h-6.401v-54.534h12.269v45.161c0 5.168-2.632 9.373-5.868 9.373z" fill="#B4CCFF"/><path d="M107.957 152.146H62.794v-11.971c15.054-10.766 30.109-10.766 45.163 0v11.971z" fill="#1448B6"/><path d="M152.942 152.368h-45.163v-11.971c15.054-10.766 30.108-10.766 45.163 0v11.971z" fill="#1448B6"/><path d="M197.927 152.59h-45.163v-11.971c15.054-10.767 30.109-10.767 45.163 0v11.971zm-143.845-7.981c5.794 0 10.49-5.856 10.49-13.079 0-7.224-4.696-13.08-10.49-13.08-5.794 0-10.49 5.856-10.49 13.08 0 7.223 4.696 13.079 10.49 13.079zm153.624-.443c5.794 0 10.491-5.856 10.491-13.08 0-7.223-4.697-13.079-10.491-13.079-5.793 0-10.49 5.856-10.49 13.079 0 7.224 4.697 13.08 10.49 13.08z" fill="#1448B6"/><path d="M269.692 186H-8.692a.28.28 0 01-.218-.112.438.438 0 01-.09-.272c0-.102.032-.199.09-.271a.281.281 0 01.218-.113h278.384c.082 0 .16.041.218.113.058.072.09.169.09.271 0 .102-.032.2-.09.272a.28.28 0 01-.218.112zM139.055 58.149h-31.103c-.735-.001-1.439-.366-1.959-1.013-.519-.648-.811-1.527-.812-2.443V21.291c.001-.916.293-1.794.812-2.442.52-.648 1.224-1.012 1.959-1.014h31.103c.735.002 1.439.366 1.959 1.014.519.648.812 1.526.812 2.442v33.402c0 .916-.293 1.795-.812 2.443-.52.647-1.224 1.012-1.959 1.013zm-31.103-39.546c-.571.001-1.119.284-1.523.788-.404.504-.632 1.187-.632 1.9v33.402c0 .713.228 1.396.632 1.9s.952.787 1.523.788h31.103c.571 0 1.119-.284 1.523-.788.405-.504.632-1.187.632-1.9V21.291c0-.713-.227-1.396-.632-1.9-.404-.503-.952-.787-1.523-.788h-31.103z" fill="#DCAF54"/><path d="M134.507 52.966h-22.008c-.694-.001-1.359-.345-1.85-.957-.491-.612-.767-1.442-.768-2.307v-23.42c.001-.865.277-1.695.768-2.306.491-.612 1.156-.956 1.85-.957h22.008c.694 0 1.359.345 1.85.957.49.611.766 1.44.767 2.306v23.42c-.001.865-.277 1.695-.767 2.307-.491.612-1.156.956-1.85.957z" fill="#B4CCFF"/><path d="M123.657 12.844c.85 0 1.54-.86 1.54-1.92s-.69-1.92-1.54-1.92c-.85 0-1.54.86-1.54 1.92s.69 1.92 1.54 1.92z" fill="#DCAF54"/><path d="M126.895 18.417l-3.237-6.743-3.218 6.742-.529-.393 3.746-7.848 3.766 7.847-.528.395zm.304 16.888a9.965 9.965 0 00-.153-1.728h-4.62c-.327 0-.64.162-.871.45a1.747 1.747 0 00-.361 1.086v8.225c1.63-.144 3.156-1.053 4.27-2.544 1.114-1.49 1.734-3.452 1.735-5.49z" fill="#DCAF54"/><path d="M120.732 43.751c-1.278 0-2.53-.45-3.611-1.298-1.082-.849-1.949-2.061-2.501-3.498a10.323 10.323 0 01-.621-4.621c.147-1.583.65-3.081 1.451-4.323.801-1.241 1.867-2.175 3.075-2.693a5.503 5.503 0 013.753-.236c1.244.364 2.38 1.16 3.277 2.294.897 1.135 1.518 2.563 1.792 4.119l.082.466h-5.003a.843.843 0 00-.653.337 1.305 1.305 0 00-.271.815v8.583l-.34.03a4.762 4.762 0 01-.43.025zm0-16.125c-1.634 0-3.2.809-4.355 2.249-1.155 1.44-1.804 3.393-1.804 5.43 0 2.036.649 3.99 1.804 5.43 1.155 1.44 2.721 2.248 4.355 2.248.051 0 .103-.002.154-.005v-7.865c0-.51.163-.997.451-1.357.289-.36.68-.563 1.089-.563h4.225c-.373-1.6-1.151-3.006-2.218-4.01-1.066-1.003-2.365-1.55-3.701-1.557z" fill="#DCAF54"/><path d="M129.816 46.247h-7.391c-.408 0-.799-.203-1.088-.563a2.186 2.186 0 01-.451-1.357v-1.346l.286-.026a5.275 5.275 0 002.516-.915c.776-.527 1.451-1.257 1.98-2.14a8.64 8.64 0 001.085-2.974 9.51 9.51 0 00-.008-3.267l-.082-.466h3.153c.408 0 .8.203 1.088.563.289.36.451.848.452 1.357v9.214c-.001.509-.163.997-.452 1.357-.288.36-.68.562-1.088.563zm-8.314-2.559v.64c0 .304.097.597.271.813a.843.843 0 00.652.338h7.391c.245 0 .48-.122.653-.338a1.31 1.31 0 00.271-.814v-9.214a1.31 1.31 0 00-.271-.815.844.844 0 00-.653-.337h-2.398c.059.444.088.893.089 1.343-.006 2.072-.62 4.068-1.727 5.613-1.106 1.545-2.628 2.53-4.278 2.771z" fill="#DCAF54"/></g><defs><clipPath id="clip0"><path fill="#fff" transform="translate(-9 -10)" d="M0 0h279v196H0z"/></clipPath></defs></svg>