<svg width="260" height="200" fill="none" xmlns="http://www.w3.org/2000/svg"><path d="M167.839 184.953c-.52 8.67-3.78 25.396-5.345 32.675l22.756 11.556c1.334-5.248 5.119-21.042 9.594-42.237-6.136-10.036-38.797-57.083-54.36-79.352-5.786.103-16.135 1.937-11.241 8.448 6.117 8.14 39.246 58.072 38.596 68.91z" fill="url(#paint0_linear)"/><path d="M148.233 31.567c-2.48-8.323-9.463-23.868-12.645-30.6l19.528-16.434c2.493 4.806 9.774 19.324 18.958 38.943-3.689 11.17-24.779 64.418-34.863 89.645-5.657 1.218-16.152 1.789-12.869-5.666 4.103-9.319 24.992-65.483 21.891-75.888z" fill="url(#paint1_linear)"/><path d="M272.593 84.306V79.25c-.679.844-.45 2.672 0 5.057-4.879 5.625-28.001 4.694-45.82 7.598-10.715 1.747-68.092 10.546-78.274 10.546-8.146 0-3.395 9.375 0 14.062 27.152-.938 84.384-3.094 96.093-4.219 35.126 0 29.799-18.447 28.001-27.987z" fill="url(#paint2_linear)"/><path d="M88.582 232.466l4.38 2.529c-.392-1.01-2.09-1.725-4.38-2.529-2.432-7.037 9.935-26.596 16.329-43.479 3.846-10.153 24.914-64.243 30.005-73.061 4.073-7.055-6.422-7.627-12.178-7.031-12.764 23.983-39.513 74.626-44.393 85.329-17.563 30.419 1.076 35.03 10.237 38.242z" fill="url(#paint3_linear)"/><path d="M28.792 124.855C20.3 130.536 5.656 143.319-.604 149L-30 137.638c4.355-4.261 17.638-16.902 35.929-33.377 15.024-1.136 88.46-3.314 123.3-4.261 4.355 4.734 10.452 14.203 0 14.203-13.065 0-89.822 3.551-100.437 10.652z" fill="url(#paint4_linear)"/><path d="M66.575 32.986C58.4 30.056 42.808 1.422 35.5 0L52-23.5c5.35.837 12 9 23.357 30.871 6.817 9.587 37.238 58.113 51.596 81.177-2.369 5.28-8.123 14.074-12.186 7.015-5.08-8.825-37.97-58.915-48.19-62.577z" fill="url(#paint5_linear)"/><defs><linearGradient id="paint0_linear" x1="186.255" y1="196.278" x2="124.42" y2="101.601" gradientUnits="userSpaceOnUse"><stop stop-color="#DBAF5C"/><stop offset=".747" stop-color="#DBAF5C"/><stop offset=".76" stop-color="#090704" stop-opacity=".992"/><stop offset="1"/></linearGradient><linearGradient id="paint1_linear" x1="163.586" y1="16.346" x2="124.934" y2="122.616" gradientUnits="userSpaceOnUse"><stop stop-color="#DBAF5C"/><stop offset=".747" stop-color="#DBAF5C"/><stop offset=".76" stop-color="#090704" stop-opacity=".992"/><stop offset="1"/></linearGradient><linearGradient id="paint2_linear" x1="246.89" y1="99.822" x2="134.054" y2="107.271" gradientUnits="userSpaceOnUse"><stop stop-color="#DBAF5C"/><stop offset=".747" stop-color="#DBAF5C"/><stop offset=".76" stop-color="#090704" stop-opacity=".992"/><stop offset="1"/></linearGradient><linearGradient id="paint3_linear" x1="87.997" y1="202.449" x2="137.963" y2="101.006" gradientUnits="userSpaceOnUse"><stop stop-color="#DBAF5C"/><stop offset=".747" stop-color="#DBAF5C"/><stop offset=".76" stop-color="#090704" stop-opacity=".992"/><stop offset="1"/></linearGradient><linearGradient id="paint4_linear" x1="2.979" y1="116.858" x2="147.377" y2="104.747" gradientUnits="userSpaceOnUse"><stop stop-color="#DBAF5C"/><stop offset=".747" stop-color="#DBAF5C"/><stop offset=".76" stop-color="#090704" stop-opacity=".992"/><stop offset="1"/></linearGradient><linearGradient id="paint5_linear" x1="63.401" y1="11.602" x2="126.15" y2="105.675" gradientUnits="userSpaceOnUse"><stop stop-color="#DBAF5C"/><stop offset=".747" stop-color="#DBAF5C"/><stop offset=".76" stop-color="#090704" stop-opacity=".992"/><stop offset="1"/></linearGradient></defs></svg>