<svg width="233" height="154" fill="none" xmlns="http://www.w3.org/2000/svg"><path opacity=".2" d="M.031 14.137l416.63-1.18M.13 45.275l416.63-1.181M.229 76.405l416.629-1.181M.32 107.542l416.638-1.181" stroke="#5A5773" stroke-miterlimit="10"/><path opacity=".2" d="M37.936 98.987l.122 39.583" stroke="#5A5773" stroke-miterlimit="10" stroke-dasharray="12 12"/><path opacity=".2" d="M.418 138.68l416.629-1.188" stroke="#5A5773" stroke-miterlimit="10"/><path opacity=".2" d="M85.18 138.435l-.184-59.008" stroke="#5A5773" stroke-miterlimit="10" stroke-dasharray="12 12"/><path d="M358.705 67.329c-7.404.816-14.769-2.968-19.334-7.03-4.729-4.218-8.223-9.469-11.6-14.578-1.07-1.615-2.18-3.28-3.295-4.887-5.874-8.373-11.657-13.953-18.193-17.564a34.467 34.467 0 00-7.609-3.082 5.039 5.039 0 01-1.021 1.578 5.398 5.398 0 01-3.661 1.657l-.249.006a5.447 5.447 0 01-3.438-1.205 5.02 5.02 0 01-1.799-3.05c-2.38.174-4.717.699-6.927 1.558-6.534 2.56-11.398 7.814-15.81 12.982a288.987 288.987 0 00-15.248 19.436 975.81 975.81 0 00-2.908 4.056c-5.173 7.34 59.48 14.925 52.45 20.932-9.435 8.108-20.963 11.804-30.84 9.892-11.849-2.293-20.564-12.016-26.827-20.234-.789-1.065.954-62.38.104-63.465-5.85-7.81-29.5 32.5-84.499 36.503-13 0-35.647-1.211-45.628 6.89-4.865 3.95-8.448 9.234-11.923 14.34-1.19 1.757-2.423 3.572-3.696 5.316-6.55 8.935-13.27 13.87-20.638 15.098a41.838 41.838 0 01-8.829.24c-1.956-.077-3.98-.167-5.953-.063a29.466 29.466 0 00-13.777 4.49c-4.111 2.608-7.447 6.19-9.684 10.395l.192 41.689 327.289-.92-.215-68.975a4.683 4.683 0 01-1.8.564c-.634.065-1.276 0-1.884-.188a4.593 4.593 0 01-1.639-.906 4.354 4.354 0 01-1.111-1.468v-.007z" fill="#B4CCFF"/><path opacity=".2" d="M133.257 40.45l.306 97.852" stroke="#5A5773" stroke-miterlimit="10" stroke-dasharray="12 12"/><path d="M38 98.83c2.167-5.333 9.9-16.1 23.5-16.5 17-.5 21 2.5 38.5-19s19.5-22.5 63-23c30-4 53-15.5 71-33" stroke="#1448B6" stroke-width="1.5"/><path opacity=".5" d="M14.758 7.602l-14.077.04a.666.666 0 00-.679.653l.016 5.213c0 .36.307.65.683.65l14.077-.04c.376 0 .68-.293.679-.653l-.016-5.213c0-.36-.307-.651-.683-.65z" fill="#1448B6"/><path d="M14.844 38.731l-14.077.04a.667.667 0 00-.68.653l.017 5.213c0 .36.307.65.683.65l14.077-.04c.376 0 .68-.293.679-.653l-.016-5.213c-.001-.36-.307-.65-.683-.65z" fill="#1448B6"/><path opacity=".5" d="M14.938 69.874l-14.077.04a.667.667 0 00-.68.653l.016 5.213c.002.36.307.65.684.65l14.076-.04c.377 0 .68-.293.68-.653l-.016-5.213c-.001-.36-.307-.65-.683-.65zm.095 31.13l-14.076.039a.667.667 0 00-.68.653l.016 5.213c.001.36.307.651.683.65l14.077-.039c.376-.001.68-.293.68-.653l-.016-5.214c-.002-.359-.307-.65-.684-.649zm.098 31.136l-14.077.039c-.376.001-.68.294-.679.653l.016 5.214c0 .36.307.65.683.649l14.077-.039c.376-.001.68-.293.679-.653l-.016-5.213c0-.36-.307-.651-.683-.65zm29.029 12.951l-14.076.039a.667.667 0 00-.68.653l.016 5.214c.001.359.307.65.683.649l14.077-.039c.376-.001.68-.293.68-.653l-.017-5.213c0-.36-.306-.651-.683-.65zm48.059-.134l-14.077.039c-.376.001-.68.293-.68.653l.017 5.214c0 .359.307.65.683.649l14.077-.039c.376-.001.68-.293.679-.653l-.016-5.213c-.001-.36-.307-.651-.683-.65z" fill="#1448B6"/><path d="M138.952 146.876l-14.083-.022c-.376 0-.682.291-.683.651l-.008 5.216c-.001.36.304.652.68.653l14.083.021c.377.001.682-.29.683-.65l.009-5.216c0-.36-.304-.652-.681-.653z" fill="#1448B6"/></svg>