<svg width="41" height="41" fill="none" xmlns="http://www.w3.org/2000/svg"><path d="M38.967 20c0-.088.004.116 0 0-.004-.323.008-.611 0-.998-.032-1.113.088-2.949 0-3.994-.12-1.44-.758-2.094-.998-2.995-.254-.94-.308-2.306-.998-2.995-.69-.69-2.051-.744-2.995-.999-1.133-.303-2.866-.882-5.989-.998-1.485-.056-3.401.02-4.99 0-.557-.008-.535.004-.999 0h-1.996c-.464.004-.442-.008-.998 0-1.59.02-3.506-.056-4.991 0-3.123.12-4.86.7-5.99.998-.943.254-2.303.31-2.994.999-.69.69-.745 2.054-.998 2.995-.244.901-.878 1.555-.998 2.995-.088 1.045.032 2.88 0 3.994-.012.387.004.675 0 .998 0 .116 0-.088 0 0s-.004-.116 0 0c.004.323-.008.611 0 .998.032 1.113-.088 2.949 0 3.994.12 1.44.758 2.094.998 2.995.513 1.91 2.075 3.483 3.993 3.994 1.129.303 2.866.882 5.989.998 1.485.056 3.401-.02 4.99 0 .557.008.535-.004.999 0h1.996c.464-.004.442.008.998 0 1.59-.02 3.506.056 4.991 0 3.123-.12 4.86-.7 5.99-.998 1.917-.51 3.48-2.08 3.992-3.994.244-.901.878-1.555.998-2.995.088-1.045-.032-2.88 0-3.994.012-.387-.004-.675 0-.998 0 .088 0-.116 0 0zm-2.994 0c0 .084.004-.108 0 0-.004.311.008.628 0 .998-.029 1.061.084 3.009 0 3.994-.108 1.284-.81 2.29-.999 2.995-.248.921-.077.755-.998.998-.84.224-3.11.891-5.989.999-1.457.056-3.425-.02-4.99 0-.55.008-.543 0-.999 0h-2.994c-1.566-.02-3.53.056-4.991 0-2.879-.112-5.153-.775-5.99-.999-.92-.247-.75-.077-.997-.998-.189-.706-.89-1.71-.999-2.995-.084-.985.032-2.933 0-3.994-.012-.37.004-.69 0-.998 0-.108 0 .08 0 0 0-.084-.004.108 0 0 .004-.311-.008-.628 0-.998.028-1.061-.084-3.009 0-3.994.109-1.284.81-2.29.999-2.995.248-.921.077-.755.998-.998.84-.224 3.11-.891 5.989-.999 1.457-.056 3.425.02 4.99 0 .55-.008.543 0 .999 0h2.994c1.566.02 3.53-.056 4.991 0 2.879.112 5.153.775 5.99.998.92.248.75.078.997.999.189.706.89 1.71.999 2.995.084.985-.032 2.933 0 3.994.012.37-.004.69 0 .998 0-.08 0 .108 0 0zm-18.966 4.992L26.99 20l-9.982-4.992v9.984z" fill="#fff"/></svg>